<svg width="37" height="37" viewBox="0 0 37 37" fill="none" xmlns="http://www.w3.org/2000/svg">
<path d="M34.672 17.3165L34.6766 17.3489C34.0637 17.4314 33.5612 17.8997 33.448 18.5227L30.9893 32.0479C30.8646 32.735 30.2653 33.2344 29.5672 33.2344H7.98745C7.28936 33.2344 6.69006 32.735 6.56529 32.0479L4.10657 18.5227C3.99337 17.8997 3.4909 17.4314 2.87806 17.3489L2.88257 17.3165C1.82033 17.1776 1 16.2686 1 15.168C1 13.9705 1.9705 13 3.16796 13H34.3867C35.5841 13 36.5546 13.9705 36.5546 15.168C36.5546 16.2686 35.7343 17.1776 34.672 17.3165ZM27.4492 28.1758V22.3945C27.4492 21.5968 26.8016 20.9492 26.0039 20.9492C25.2053 20.9492 24.5585 21.5959 24.5585 22.3945V28.1758C24.5585 28.9744 25.2053 29.6211 26.0039 29.6211C26.8024 29.6211 27.4492 28.9744 27.4492 28.1758ZM20.2226 28.1758V22.3945C20.2226 21.5968 19.5751 20.9492 18.7773 20.9492C17.9787 20.9492 17.332 21.5959 17.332 22.3945V28.1758C17.332 28.9744 17.9787 29.6211 18.7773 29.6211C19.5759 29.6211 20.2226 28.9744 20.2226 28.1758ZM12.9961 28.1758V22.3945C12.9961 21.5968 12.3485 20.9492 11.5508 20.9492C10.7522 20.9492 10.1055 21.5959 10.1055 22.3945V28.1758C10.1055 28.9744 10.7522 29.6211 11.5508 29.6211C12.3494 29.6211 12.9961 28.9744 12.9961 28.1758Z" fill="#FF5631"/>
<path d="M22.6357 4.06606L29.4495 13.4403H26.1428L20.1092 5.47072C19.7211 4.77263 19.9726 3.89245 20.6701 3.50515C21.3696 3.11785 22.2498 3.36937 22.6357 4.06606Z" fill="#FF5631"/>
<path d="M16.2936 3.50515C16.9911 3.89245 17.2426 4.77263 16.8545 5.47072L10.8209 13.4403H7.51416L14.328 4.06606C14.7153 3.36937 15.5941 3.11785 16.2936 3.50515Z" fill="#FF5631"/>
<path d="M34.1093 12.7179H29.8358L23.2619 3.67365C22.6713 2.66165 21.3705 2.30145 20.3374 2.87365C19.2901 3.45544 18.9135 4.77457 19.4956 5.82214C19.5122 5.85178 19.5306 5.88029 19.5512 5.90739L24.7075 12.7179H12.2925L17.4487 5.90739C17.4691 5.88029 17.4877 5.85178 17.5043 5.82214C18.085 4.77711 17.7127 3.45686 16.6617 2.87309C15.6308 2.30202 14.33 2.66193 13.7383 3.67309L7.16416 12.7179H2.89062C1.29683 12.7179 0 14.0147 0 15.6085C0 16.8655 0.81581 17.9599 1.965 18.3472C2.08751 18.4421 2.24051 18.4991 2.40706 18.4991C2.44037 18.4991 2.47171 18.5011 2.50445 18.5056C2.81553 18.5474 3.06197 18.7834 3.11843 19.0922L5.57686 32.6177C5.76458 33.6489 6.66169 34.3976 7.71011 34.3976H29.2898C30.3382 34.3976 31.2353 33.6489 31.4231 32.6174L33.8815 19.0925C33.938 18.7834 34.1847 18.5474 34.4969 18.5056C34.5285 18.5011 34.5598 18.4991 34.5929 18.4991C34.7605 18.4991 34.9147 18.4415 35.0372 18.3455C36.1872 17.9557 36.9999 16.8633 36.9999 15.6085C36.9999 14.0147 35.7031 12.7179 34.1093 12.7179ZM20.7393 5.08227C20.5742 4.74042 20.7024 4.32404 21.0383 4.13773C21.388 3.9438 21.829 4.06886 22.0218 4.41635C22.0359 4.44232 22.052 4.46716 22.0692 4.49088L28.0489 12.7179H26.52L20.7393 5.08227ZM14.9307 4.49116C14.9479 4.46745 14.9635 4.44289 14.9779 4.41748C15.1712 4.0697 15.6125 3.94437 15.9608 4.13717C16.2973 4.32404 16.426 4.73985 16.2606 5.08227L10.4799 12.7179H8.95104L14.9307 4.49116ZM34.1093 17.0538H21.4095C21.0665 17.0538 20.7549 17.2839 20.6835 17.6189C20.5824 18.0926 20.9389 18.4991 21.3923 18.4991H32.5474C32.5096 18.6067 32.4797 18.7185 32.4588 18.8336L30.0015 32.3592C29.9391 32.7027 29.6401 32.9522 29.2907 32.9522H7.71011C7.36035 32.9522 7.06141 32.7027 6.99874 32.3592L4.54031 18.8336C4.51942 18.7185 4.48949 18.6067 4.45167 18.4991H15.5868C15.9489 18.4991 16.2727 18.2422 16.3244 17.8837C16.3885 17.4369 16.0438 17.0538 15.6093 17.0538H2.89062C2.00904 17.0538 1.32252 16.2659 1.46394 15.3756C1.57573 14.6696 2.20777 14.1632 2.9228 14.1632H34.0757C34.8337 14.1632 35.4888 14.7331 35.5498 15.4888C35.619 16.3461 34.937 17.0538 34.1093 17.0538Z" fill="#434242"/>
<path d="M16.314 22.8793V28.5725C16.314 29.7129 17.1775 30.6922 18.3148 30.778C19.5854 30.8737 20.6499 29.867 20.6499 28.6162V22.835C20.6499 21.5847 19.5927 20.5823 18.323 20.6727C17.2162 20.7514 16.314 21.7693 16.314 22.8793ZM19.2046 28.6162C19.2046 29.0507 18.8195 29.3965 18.373 29.331C18.015 29.2782 17.7593 28.9547 17.7593 28.5931V22.8576C17.7593 22.4957 18.0159 22.1719 18.3744 22.1202C18.821 22.0556 19.2046 22.4008 19.2046 22.835V28.6162Z" fill="#434242"/>
<path d="M27.8765 28.5723V22.8788C27.8765 21.7381 27.0129 20.7589 25.8756 20.6733C24.605 20.5774 23.5405 21.5843 23.5405 22.8348V28.616C23.5405 29.8669 24.605 30.8735 25.8756 30.7778C27.0129 30.692 27.8765 29.7127 27.8765 28.5723ZM24.9858 22.8348C24.9858 22.4004 25.3709 22.0546 25.8175 22.1201C26.1754 22.1728 26.4311 22.4963 26.4311 22.858V28.5926C26.4311 28.9545 26.1754 29.278 25.8175 29.3305C25.3709 29.3963 24.9858 29.0502 24.9858 28.616V22.8348Z" fill="#434242"/>
<path d="M9.0874 22.8793V28.5725C9.0874 29.7129 9.95092 30.6922 11.0883 30.778C12.3588 30.8737 13.4233 29.867 13.4233 28.6162V22.835C13.4233 21.5844 12.3662 20.5823 11.0964 20.6727C9.98931 20.7514 9.0874 21.7693 9.0874 22.8793ZM11.978 28.6162C11.978 29.0504 11.593 29.3965 11.1464 29.331C10.7885 29.2782 10.5327 28.9547 10.5327 28.5931V22.8576C10.5327 22.4954 10.7896 22.1719 11.1478 22.1199C11.5944 22.0556 11.978 22.4005 11.978 22.835V28.6162Z" fill="#434242"/>
</svg>
