<svg width="32" height="32" viewBox="0 0 32 32" fill="none" xmlns="http://www.w3.org/2000/svg">
<path d="M29.7311 15.3577L29.7351 15.3857C29.205 15.457 28.7705 15.8621 28.6726 16.4009L26.5461 28.0984C26.4382 28.6926 25.9199 29.1245 25.3161 29.1245H6.65258C6.04882 29.1245 5.53051 28.6926 5.4226 28.0984L3.29614 16.4009C3.19824 15.8621 2.76367 15.457 2.23364 15.3857L2.23755 15.3577C1.31885 15.2375 0.609375 14.4514 0.609375 13.4995C0.609375 12.4639 1.44873 11.6245 2.48437 11.6245H29.4843C30.52 11.6245 31.3593 12.4639 31.3593 13.4995C31.3593 14.4514 30.6498 15.2375 29.7311 15.3577ZM23.4843 24.7495V19.7495C23.4843 19.0596 22.9243 18.4995 22.2343 18.4995C21.5437 18.4995 20.9843 19.0588 20.9843 19.7495V24.7495C20.9843 25.4402 21.5437 25.9995 22.2343 25.9995C22.925 25.9995 23.4843 25.4402 23.4843 24.7495ZM17.2343 24.7495V19.7495C17.2343 19.0596 16.6743 18.4995 15.9843 18.4995C15.2937 18.4995 14.7343 19.0588 14.7343 19.7495V24.7495C14.7343 25.4402 15.2937 25.9995 15.9843 25.9995C16.675 25.9995 17.2343 25.4402 17.2343 24.7495ZM10.9844 24.7495V19.7495C10.9844 19.0596 10.4243 18.4995 9.73436 18.4995C9.04368 18.4995 8.48436 19.0588 8.48436 19.7495V24.7495C8.48436 25.4402 9.04368 25.9995 9.73436 25.9995C10.425 25.9995 10.9844 25.4402 10.9844 24.7495Z" fill="#FECC00"/>
<path d="M19.5769 3.51695L25.4699 11.6244H22.6101L17.3918 4.73179C17.0561 4.12803 17.2737 3.3668 17.8769 3.03184C18.4819 2.69688 19.2431 2.91441 19.5769 3.51695Z" fill="#FF9900"/>
<path d="M14.0918 3.03184C14.6951 3.3668 14.9126 4.12803 14.5769 4.73179L9.35864 11.6244H6.49878L12.3918 3.51695C12.7268 2.91441 13.4868 2.69688 14.0918 3.03184Z" fill="#FF9900"/>
<path d="M29.4999 10.9992H25.8039L20.1184 3.17721C19.6076 2.30197 18.4826 1.99045 17.5891 2.48532C16.6833 2.98849 16.3576 4.12936 16.8611 5.03537C16.8755 5.061 16.8913 5.08566 16.9091 5.1091L21.3686 10.9992H10.6313L15.0908 5.1091C15.1084 5.08566 15.1245 5.061 15.1389 5.03537C15.6411 4.13156 15.3191 2.98971 14.4101 2.48483C13.5185 1.99093 12.3935 2.30221 11.8818 3.17672L6.19603 10.9992H2.5C1.12158 10.9992 0 12.1208 0 13.4992C0 14.5864 0.705565 15.5329 1.69946 15.8679C1.80542 15.9499 1.93774 15.9992 2.08178 15.9992C2.11059 15.9992 2.13769 16.0009 2.16601 16.0049C2.43505 16.041 2.64819 16.2451 2.69702 16.5122L4.82323 28.2099C4.98559 29.1018 5.76146 29.7492 6.6682 29.7492H25.3317C26.2385 29.7492 27.0144 29.1018 27.1767 28.2097L29.3029 16.5124C29.3518 16.2451 29.5651 16.041 29.8351 16.0049C29.8625 16.0009 29.8896 15.9992 29.9182 15.9992C30.0632 15.9992 30.1965 15.9494 30.3024 15.8664C31.2971 15.5293 31.9999 14.5844 31.9999 13.4992C31.9999 12.1208 30.8784 10.9992 29.4999 10.9992ZM17.9367 4.39547C17.7939 4.09982 17.9048 3.73971 18.1953 3.57858C18.4978 3.41086 18.8791 3.51901 19.0459 3.81955C19.0581 3.84201 19.072 3.86349 19.0869 3.884L24.2585 10.9992H22.9362L17.9367 4.39547ZM12.9131 3.88424C12.928 3.86374 12.9414 3.8425 12.9538 3.82052C13.1211 3.51974 13.5027 3.41134 13.8039 3.57809C14.0949 3.73971 14.2063 4.09933 14.0632 4.39547L9.0637 10.9992H7.74144L12.9131 3.88424ZM29.4999 14.7492H18.5163C18.2197 14.7492 17.9502 14.9482 17.8884 15.238C17.801 15.6477 18.1093 15.9992 18.5014 15.9992H28.1491C28.1164 16.0923 28.0905 16.1889 28.0725 16.2885L25.9472 27.9863C25.8933 28.2834 25.6347 28.4992 25.3325 28.4992H6.6682C6.36571 28.4992 6.10717 28.2834 6.05297 27.9863L3.92675 16.2885C3.90868 16.1889 3.88281 16.0923 3.85009 15.9992H13.4804C13.7937 15.9992 14.0737 15.7771 14.1184 15.467C14.1738 15.0805 13.8757 14.7492 13.5 14.7492H2.5C1.73755 14.7492 1.1438 14.0678 1.26611 13.2978C1.36279 12.6872 1.90942 12.2492 2.52783 12.2492H29.4709C30.1264 12.2492 30.6931 12.7422 30.7458 13.3957C30.8056 14.1372 30.2158 14.7492 29.4999 14.7492Z" fill="#434242"/>
<path d="M14.1094 19.7874V24.7112C14.1094 25.6975 14.8562 26.5445 15.8398 26.6187C16.9387 26.7014 17.8594 25.8308 17.8594 24.749V19.749C17.8594 18.6677 16.9451 17.8008 15.8469 17.8789C14.8896 17.947 14.1094 18.8274 14.1094 19.7874ZM16.6094 24.749C16.6094 25.1248 16.2764 25.4238 15.8901 25.3672C15.5806 25.3216 15.3594 25.0418 15.3594 24.729V19.7686C15.3594 19.4556 15.5813 19.1756 15.8914 19.1309C16.2776 19.075 16.6094 19.3735 16.6094 19.749V24.749Z" fill="#434242"/>
<path d="M24.1092 24.7115V19.7875C24.1092 18.8009 23.3624 17.954 22.3788 17.88C21.2799 17.797 20.3593 18.6678 20.3593 19.7494V24.7494C20.3593 25.8312 21.2799 26.7018 22.3788 26.619C23.3624 26.5448 24.1092 25.6979 24.1092 24.7115ZM21.6092 19.7494C21.6092 19.3736 21.9423 19.0746 22.3285 19.1312C22.6381 19.1769 22.8592 19.4567 22.8592 19.7694V24.7291C22.8592 25.0421 22.6381 25.3219 22.3285 25.3673C21.9423 25.4242 21.6092 25.1249 21.6092 24.7494V19.7494Z" fill="#434242"/>
<path d="M7.85938 19.7874V24.7112C7.85938 25.6975 8.6062 26.5444 9.58984 26.6187C10.6887 26.7014 11.6094 25.8308 11.6094 24.749V19.749C11.6094 18.6675 10.6951 17.8008 9.59692 17.8789C8.6394 17.947 7.85938 18.8274 7.85938 19.7874ZM10.3594 24.749C10.3594 25.1245 10.0264 25.4238 9.64013 25.3672C9.33056 25.3215 9.10937 25.0418 9.10937 24.729V19.7686C9.10937 19.4553 9.33154 19.1756 9.64135 19.1306C10.0276 19.075 10.3594 19.3733 10.3594 19.749V24.749Z" fill="#434242"/>
</svg>
