<svg width="57" height="57" viewBox="0 0 57 57" fill="none" xmlns="http://www.w3.org/2000/svg">
<path d="M45.6186 26.6009L39.872 26.6009L39.872 24.4568C39.8721 22.8699 41.1581 21.5839 42.7449 21.5839C44.3318 21.5839 45.6186 22.8699 45.6186 24.4568L45.6186 26.6009Z" fill="#1E3D2E"/>
<path d="M45.6189 32.3934C45.6189 33.9802 44.332 35.2663 42.7452 35.2662C41.1583 35.2662 39.8724 33.9803 39.8724 32.3934L39.8723 30.2493L45.6189 30.2493L45.6189 32.3934Z" fill="#1E3D2E"/>
<path d="M38.1918 30.248L45.6191 30.248L45.6191 26.6003L38.1918 26.6003L38.1918 30.248Z" fill="#38A287"/>
<path d="M34.7638 35.2554H28.5348L25.1727 28.4238L28.5348 21.5922L34.7638 21.5922C37.5845 21.5922 39.8715 23.8792 39.8715 26.6999L39.8715 30.1477C39.8715 32.9684 37.5845 35.2554 34.7638 35.2554Z" fill="#FFE670"/>
<path d="M28.5351 35.2558L23.2543 35.2559L20.7328 28.4242L23.2542 21.5926L28.5351 21.5926L28.5351 35.2558Z" fill="#1E3D2E"/>
<path d="M23.2541 35.2555L17.974 35.2554L15.4525 28.4238L17.974 21.5922L23.254 21.5922L23.2541 35.2555Z" fill="#FFE670"/>
<path d="M17.9743 35.2553L15.3898 35.2554C14.3837 35.2554 13.4877 35.0528 12.6934 34.7174L11.0124 28.4238L12.6934 22.1301C13.4877 21.7947 14.3836 21.5922 15.3897 21.5922L17.9742 21.5922L17.9743 35.2553Z" fill="#1E3D2E"/>
<path d="M12.6932 22.1299L12.6932 34.7173C8.87384 33.106 7.41227 28.4236 7.41227 28.4236C7.41227 28.4236 8.8739 23.7412 12.6932 22.1299Z" fill="#FFE670"/>
<path d="M34.7496 26.4298L23.8037 21.0077C23.2758 20.7456 22.7976 20.3925 22.3799 19.9268C20.6106 17.9542 20.7746 14.9199 22.7472 13.1507L31.5011 16.6036L34.7496 26.4298Z" fill="#CED4D2"/>
<path d="M34.7499 26.4292L22.7476 13.1499C22.7493 13.1482 22.7501 13.1474 22.7518 13.1466C22.6703 12.9818 22.5947 12.8129 22.5257 12.6373C21.2564 9.37947 22.8677 5.70901 26.1255 4.43902C29.3841 3.16898 33.0546 4.78112 34.3246 8.03889C34.6187 8.79368 34.7642 9.58796 34.7641 10.3528L34.7499 26.4292Z" fill="#EBEEED"/>
<path d="M34.7493 30.4188L23.8034 35.8409C23.2756 36.1031 22.7974 36.4562 22.3796 36.9218C20.6103 38.8944 20.7743 41.9287 22.7469 43.6979L31.5008 40.2451L34.7493 30.4188Z" fill="#CED4D2"/>
<path d="M34.749 30.418L22.7466 43.6971C22.7483 43.6988 22.7491 43.6997 22.7508 43.7005C22.6693 43.8652 22.5937 44.0341 22.5247 44.2098C21.2556 47.4676 22.8668 51.1381 26.1246 52.4081C29.3832 53.6781 33.0537 52.066 34.3237 48.8082C34.6179 48.0534 34.7633 47.2591 34.7633 46.4942L34.749 30.418Z" fill="#EBEEED"/>
<path d="M20.5036 34.6253L18.6043 34.6252L18.6044 22.2232L20.5036 22.2232C20.8517 22.2232 21.134 21.9409 21.1339 21.5928C21.1339 21.2447 20.8517 20.9624 20.5036 20.9625L15.3897 20.9624C14.3844 20.9624 13.4223 21.1533 12.517 21.5256C12.4715 21.5388 12.4281 21.5568 12.3874 21.5794C11.0049 22.178 9.75898 23.2056 8.70235 24.6336C7.76797 25.8964 7.21688 27.15 6.96867 27.794L4.8007 27.7939C4.45254 27.7939 4.17029 28.0762 4.17029 28.4243C4.17029 28.5983 4.24082 28.7561 4.35484 28.8701C4.46891 28.9841 4.62646 29.0547 4.80059 29.0546H6.96862C7.21683 29.6986 7.76792 30.9522 8.70224 32.2149C9.03725 32.6678 9.39097 33.0799 9.76241 33.4514C10.5623 34.2512 11.4428 34.8602 12.387 35.269C12.4309 35.2934 12.478 35.3123 12.5276 35.3258C13.4299 35.6953 14.3881 35.8862 15.3895 35.8862H20.5034C20.8515 35.8862 21.1338 35.6039 21.1338 35.2558C21.134 34.9075 20.8517 34.6253 20.5036 34.6253ZM9.73683 31.4931C8.77927 30.2077 8.25311 28.9004 8.07952 28.4242C8.25338 27.9475 8.77943 26.6405 9.73688 25.3554C10.4408 24.4106 11.2178 23.6783 12.0628 23.1597L12.0628 33.689C11.2178 33.1704 10.4406 32.438 9.73683 31.4931ZM15.3897 34.6253C14.668 34.6253 13.9788 34.5114 13.3236 34.2862L13.3235 22.5623C13.9788 22.3371 14.668 22.2233 15.3897 22.2232L17.3435 22.2232L17.3435 34.6254L15.3897 34.6253Z" fill="#434242"/>
<path d="M23.8851 23.5507C23.8851 23.2025 23.6029 22.9202 23.2548 22.9203C22.9066 22.9203 22.6244 23.2026 22.6244 23.5507L22.6244 33.297C22.6244 33.471 22.6949 33.6287 22.809 33.7428C22.923 33.8568 23.0806 33.9274 23.2547 33.9273C23.6029 33.9273 23.8851 33.6451 23.8851 33.297L23.8851 23.5507Z" fill="#434242"/>
<path d="M28.0897 31.1127C28.2037 31.2268 28.3613 31.2974 28.5354 31.2973C28.8836 31.2973 29.1658 31.015 29.1658 30.6669L29.1658 26.1816C29.1658 25.8334 28.8836 25.5512 28.5354 25.5512C28.1872 25.5512 27.905 25.8334 27.905 26.1816L27.905 30.6669C27.905 30.8411 27.9756 30.9987 28.0897 31.1127Z" fill="#434242"/>
<path d="M34.911 49.0389C35.2269 48.2284 35.3939 47.3493 35.3941 46.4962L35.3941 35.8516C36.6883 35.711 37.8873 35.1399 38.8211 34.2062C39.042 33.9852 39.2417 33.7486 39.4212 33.5002C39.5953 34.0215 39.8879 34.4891 40.2682 34.8694C40.9026 35.5038 41.7785 35.8968 42.7444 35.8968C44.6762 35.8968 46.2478 34.3252 46.2478 32.3934L46.2478 30.8797L48.8097 30.8797C49.1578 30.8797 49.4401 30.5975 49.44 30.2494C49.44 29.9012 49.1578 29.619 48.8097 29.619L46.2478 29.619L46.2479 27.2312L48.8098 27.2312C49.1579 27.2312 49.4402 26.9489 49.4401 26.6008C49.4402 26.2527 49.1579 25.9705 48.8097 25.9704L46.2478 25.9704L46.2478 24.4568C46.2479 22.525 44.6763 20.9534 42.7444 20.9534C41.1994 20.9534 39.8858 21.959 39.4212 23.3499C39.2417 23.1014 39.0421 22.8649 38.8211 22.6439C37.8874 21.7103 36.6882 21.1391 35.3941 20.9985L35.3942 10.3537C35.3939 9.50087 35.2269 8.6217 34.9111 7.81133C33.5171 4.23453 29.4731 2.45885 25.8964 3.85288C22.3197 5.24692 20.544 9.2909 21.9381 12.8674C21.9562 12.9137 21.9748 12.96 21.9941 13.0063C20.0845 15.0366 20.0159 18.2365 21.9108 20.3484C21.9757 20.4208 22.0425 20.4912 22.1109 20.5597C22.5217 20.9704 22.9954 21.3104 23.5222 21.5725L34.3699 26.9762C34.5438 27.1079 34.7745 27.1391 34.9783 27.0599C35.0216 27.0443 35.0634 27.023 35.1032 26.9976C35.109 26.9939 35.1147 26.99 35.1204 26.9861C35.1388 26.9733 35.1568 26.9597 35.1741 26.9448C35.1771 26.9421 35.1805 26.9398 35.1835 26.9371C35.1844 26.9363 35.1853 26.9355 35.1862 26.9348C35.2051 26.9177 35.2224 26.8994 35.2388 26.8808C35.2427 26.8764 35.2462 26.8717 35.25 26.8671C35.264 26.8501 35.277 26.8325 35.289 26.8145C35.2922 26.8099 35.2953 26.8053 35.2983 26.8004C35.3127 26.7776 35.3256 26.7541 35.3368 26.7298C35.3376 26.7282 35.3381 26.7266 35.3388 26.725C35.349 26.7024 35.3574 26.6793 35.3648 26.6557C35.3668 26.6494 35.3687 26.6429 35.3706 26.6365C35.3777 26.6109 35.3838 26.585 35.3876 26.5588C35.3878 26.5577 35.3878 26.5565 35.388 26.5555C35.3917 26.5295 35.3932 26.5033 35.3937 26.477C35.3937 26.4735 35.3944 26.4702 35.3944 26.4668L35.3944 22.2682C36.3512 22.4023 37.2348 22.8399 37.93 23.5351C38.7757 24.3808 39.2414 25.5052 39.2414 26.7011L39.2414 30.1486C39.2414 31.3445 38.7757 32.4689 37.93 33.3145C37.2349 34.0096 36.3512 34.4474 35.3944 34.5815L35.3944 30.3829C35.3944 30.3797 35.3938 30.3767 35.3938 30.3735C35.3929 30.3189 35.3852 30.2647 35.3704 30.212C35.3688 30.2064 35.3671 30.2007 35.3654 30.1951C35.3577 30.1704 35.3488 30.1459 35.3379 30.122C35.3377 30.1215 35.3375 30.121 35.3373 30.1205C35.326 30.0958 35.3127 30.0718 35.298 30.0484C35.2955 30.0443 35.2927 30.0403 35.29 30.0364C35.2777 30.0176 35.2642 29.9995 35.2497 29.9819C35.2463 29.9777 35.243 29.9734 35.2395 29.9692C35.223 29.9503 35.2056 29.932 35.1865 29.9148C35.1857 29.9141 35.1848 29.9135 35.1839 29.9126C35.1805 29.9096 35.1769 29.9071 35.1733 29.9042C35.1563 29.8896 35.1388 29.8761 35.1206 29.8637C35.1146 29.8595 35.1085 29.8555 35.1022 29.8516C35.0823 29.8389 35.0619 29.8273 35.041 29.8171C35.0389 29.816 35.037 29.8145 35.0348 29.8135C35.034 29.8131 35.033 29.8129 35.0323 29.8124C35.0222 29.8077 35.0118 29.8038 35.0016 29.7996C34.7925 29.7084 34.5506 29.7367 34.3701 29.8736L23.5228 35.2771C22.9077 35.5829 22.3654 35.9948 21.911 36.5013C20.0151 38.6145 20.0844 41.8163 21.9942 43.8437C21.975 43.8898 21.9564 43.9359 21.9383 43.9821C20.9042 46.6351 21.614 49.5447 23.5092 51.4399C24.1691 52.0997 24.9731 52.6367 25.8966 52.9968C29.473 54.3912 33.517 52.6155 34.911 49.0389ZM26.3542 5.02751C29.2831 3.88594 32.5947 5.33999 33.7363 8.26897C33.9959 8.935 34.1331 9.65591 34.1333 10.3537L34.1333 24.8275L23.2877 12.8093C23.2219 12.673 23.1641 12.5417 23.1127 12.4097C21.9712 9.48069 23.4252 6.16913 26.3542 5.02751ZM24.0838 20.4438C23.6054 20.2059 23.2017 19.8992 22.849 19.5065C22.1055 18.6778 21.7292 17.6091 21.7895 16.4973C21.8382 15.5985 22.1676 14.7586 22.7319 14.0751L32.0686 24.4214L24.0838 20.4438ZM44.9871 32.3932C44.9871 33.6299 43.9811 34.6359 42.7444 34.6359C41.5078 34.6359 40.5017 33.6298 40.5017 32.3932L40.5017 30.8796L44.9871 30.8796L44.9871 32.3932ZM44.9871 29.6188L40.5017 29.6188L40.5017 27.2312L44.9871 27.2312L44.9871 29.6188ZM42.7445 22.2141C43.3628 22.2141 43.9235 22.4657 44.3295 22.8717C44.7356 23.2778 44.9872 23.8385 44.9872 24.4568L44.9871 25.9704L40.5017 25.9704L40.5017 24.4568C40.5018 23.2201 41.5078 22.2141 42.7445 22.2141ZM26.3542 51.8224C23.4253 50.6808 21.9711 47.3692 23.1128 44.4403C23.1641 44.3084 23.2219 44.177 23.2877 44.0408L28.3788 38.3993C28.612 38.1408 28.5927 37.7429 28.3332 37.509C28.0747 37.2757 27.6761 37.2962 27.4428 37.5546L22.7318 42.7749C22.1682 42.0926 21.8385 41.2524 21.7896 40.3525C21.7294 39.2408 22.1057 38.1721 22.8492 37.3435C23.2017 36.9506 23.6055 36.644 24.0843 36.4059L32.0688 32.4285L29.1321 35.6827C28.9063 35.933 28.9183 36.3147 29.154 36.5504C29.1617 36.5581 29.1696 36.5657 29.1778 36.5731C29.4363 36.8063 29.8349 36.7859 30.0682 36.5274L34.1335 32.0226L34.1335 46.4962C34.1334 47.1942 33.996 47.9151 33.7365 48.5811C32.5948 51.5099 29.2831 52.9641 26.3542 51.8224Z" fill="#434242"/>
</svg>
