<svg width="1440" height="555" viewBox="0 0 1440 555" fill="none" xmlns="http://www.w3.org/2000/svg">
<path d="M156.5 75.0378C207.5 67.7521 197.5 0 247.5 0C315.5 0 347 62.5 410.5 62.5C474 62.5 481 22 548 32.5C615 43 641.5 93.5 732 84.5C822.5 75.5 821 46 870 46C919 46 978.5 104.471 1013.5 88.5L1014.86 87.8817C1095.81 50.94 1123.66 38.2329 1171.5 66C1227.5 98.5 1293.5 97.5 1315 95.5264C1387.46 88.8752 1409.26 39.426 1439 66C1462.5 87 1489.5 63.5498 1489.5 95.5264V753.5L467.5 753.5H21.2807H-11V75.0378C-11 51.6383 16.8861 31.6793 32 30C99.5 22.5 105.5 82.3235 156.5 75.0378Z" fill="#FECC00"/>
</svg>
