<svg width="1440" height="387" viewBox="0 0 1440 387" fill="none" xmlns="http://www.w3.org/2000/svg">
<path d="M-2 76.2938V151.274V840.094C42.5618 847.092 42.5618 811.602 75.6076 800.105C108.653 788.608 121.472 805.843 146.706 807.103C206.79 810.102 193.271 739.121 239.835 739.121C280.892 739.121 301.922 801.604 362.506 780.61C446.639 751.455 482.672 740.62 544.758 764.114C618.294 791.941 659.918 846.593 719 807.103C759.691 779.905 807.122 810.602 856.19 789.108C910.269 772.404 908.763 744.516 968.346 773.612C1014.41 796.106 1060.47 842.832 1115.55 815.601C1168.12 789.607 1204.17 749.118 1261.75 780.61C1371.83 840.811 1440 809.602 1440 804.104V34.3048C1353.38 48.8012 1373.41 90.2902 1291.79 81.7924C1240.08 76.4072 1216.93 140.467 1165.12 123.781C1118.55 108.785 1054.47 53.8002 966.343 81.7924C914.844 98.151 847.325 44.121 771.573 49.3009C698.472 54.2996 654.636 109.213 596.831 76.2938C525.732 35.8044 493.187 -25.1797 412.575 35.8046C384.652 56.9288 319.446 92.7893 266.873 76.2936C214.3 59.7979 210.795 31.2828 126.678 35.8046C57.082 39.5459 16.1919 71.4618 -2 76.2938Z" fill="#FECC00"/>

</svg>
