<svg width="1440" height="428" viewBox="0 0 1440 428" fill="none" xmlns="http://www.w3.org/2000/svg">
<path d="M-2 -336.706V-261.726V427.094C42.5618 434.092 42.5618 398.602 75.6076 387.105C108.653 375.608 121.472 392.843 146.706 394.103C206.79 397.102 193.271 326.121 239.835 326.121C280.892 326.121 301.922 388.604 362.506 367.61C446.639 338.455 482.672 327.62 544.758 351.114C618.294 378.941 659.918 433.593 719 394.103C759.691 366.905 807.122 397.602 856.19 376.108C910.269 359.404 908.763 331.516 968.346 360.612C1014.41 383.106 1060.47 429.832 1115.55 402.601C1168.12 376.607 1204.17 336.118 1261.75 367.61C1371.83 427.811 1440 396.602 1440 391.104V-378.695C1353.38 -364.199 1373.41 -322.71 1291.79 -331.208C1240.08 -336.593 1216.93 -272.533 1165.12 -289.219C1118.55 -304.215 1054.47 -359.2 966.343 -331.208C914.844 -314.849 847.325 -368.879 771.573 -363.699C698.472 -358.7 654.636 -303.787 596.831 -336.706C525.732 -377.196 493.187 -438.18 412.575 -377.195C384.652 -356.071 319.446 -320.211 266.873 -336.706C214.3 -353.202 210.795 -381.717 126.678 -377.195C57.082 -373.454 16.1919 -341.538 -2 -336.706Z" fill="#FECC00"/>
</svg>
