<svg width="1440" height="178" viewBox="0 0 1440 178" fill="none" xmlns="http://www.w3.org/2000/svg">
<path d="M1281 103.5C1244 103.5 1226 206 1137.5 156.5C1081.15 124.984 1051 110.5 987.5 110.5C924 110.5 881.5 149 814.5 138.5C747.5 128 752 61.5 647 86C542 110.5 544.5 21.4329 501.5 44.9736C443 77 404 44.9736 357.5 77C296.317 119.139 259.5 98.5 202 44.9736C153.073 -0.572083 104.5 6.09998 86.5 11.5C41.5 25 33 66.5 1.5 44.9736C-21.0239 29.5813 -60 88.9502 -60 56.9736V-601L962 -601H1408.22H1440.5V99C1440.5 122.4 1470 150 1416 150C1335.5 150 1318 103.5 1281 103.5Z" fill="#FECC00"/>
</svg>
