<svg width="1440" height="119" viewBox="0 0 1440 119" fill="none" xmlns="http://www.w3.org/2000/svg">
<path d="M415 -366.974H14.2807C-0.34386 -366.974 -4 -354.765 -4 -348.661V21.4886C-4 44.8881 18.3431 50.9923 36.6238 50.9923C54.9045 50.9923 58.9669 58.1139 59.9825 60.1487C60.998 62.1834 59.9825 68.2876 58.9669 82.5308C57.9513 96.774 55.9201 110 71.154 110C83.3411 110 83.0026 91.6872 81.3099 82.5308C80.9714 79.8178 80.2943 71.5432 80.2943 60.1487C80.2943 45.9055 98.575 40.8186 105.684 46.9228C114.825 55.0618 128.027 59.1313 146.308 59.1313C164.589 59.1313 186.932 50.9923 205.212 45.9055C223.493 40.8186 238.727 38.7838 249.899 38.7838C261.07 38.7838 269.195 39.8012 283.413 45.9055C294.788 50.7888 305.756 47.262 309.819 44.8881C318.282 38.7839 336.833 26.1685 343.333 24.5406C349.833 22.9128 354.843 23.8624 356.536 24.5406C365.524 27.1937 391 29.9999 421 19.9999C433 13.1665 464.2 4.29987 493 23.4999C529 47.4999 553 55.9999 592 50.4999C631 44.9999 686.5 46.4999 720 77.9999C753.5 109.5 813.5 107 842.5 94.4999C871.5 81.9999 924 68.4999 975.5 91.9999C1027 115.5 1114 121 1170 84.4999C1226 47.9999 1268 43.4999 1313 56.9999C1358 70.4999 1387 65.4999 1405 44.9999C1423 24.4999 1420 62.4999 1451.5 56.9999C1476.7 52.5999 1477 -267.974 1466.5 -366.974H445.908H415Z" fill="#FED83D"/>
</svg>
