<svg width="72" height="72" viewBox="0 0 72 72" fill="none" xmlns="http://www.w3.org/2000/svg">
<path d="M62.4375 37.9246V61.2205C62.4375 66.5914 58.0836 70.9453 52.7127 70.9453H19.2873C13.9164 70.9453 9.5625 66.5914 9.5625 61.2205V37.9246C9.5625 33.747 11.6121 29.8353 15.0469 27.4573C18.4816 25.0793 20.5312 21.1676 20.5312 16.99V15.3984H51.4688V16.99C51.4688 21.1676 53.5184 25.0793 56.9531 27.4573C60.3879 29.8353 62.4375 33.747 62.4375 37.9246Z" fill="#FFD54F"/>
<path d="M56.9531 27.4573C53.5184 25.0793 51.4688 21.1676 51.4688 16.99V15.3984H47.25V16.99C47.25 21.1676 49.2996 25.0793 52.7344 27.4573C56.1691 29.8353 58.2188 33.747 58.2188 37.9246V61.2205C58.2188 66.5914 53.8649 70.9453 48.494 70.9453H52.7127C58.0836 70.9453 62.4375 66.5914 62.4375 61.2205V37.9246C62.4375 33.747 60.3879 29.8353 56.9531 27.4573Z" fill="#FFCA28"/>
<path d="M9.5625 39.042H62.4375V56.6471H9.5625V39.042Z" fill="#D35D3F"/>
<path d="M58.2188 39.042H62.4375V56.6471H58.2188V39.042Z" fill="#C24B31"/>
<path d="M29.4934 56.6471H9.5625V39.042H29.4934C34.355 39.042 38.296 42.983 38.296 47.8446C38.296 52.7061 34.355 56.6471 29.4934 56.6471Z" fill="#FFF7E6"/>
<path d="M50.7656 11.0195H21.2344C20.0694 11.0195 19.125 10.0751 19.125 8.91016C19.125 7.74522 20.0694 6.80078 21.2344 6.80078H50.7656C51.9306 6.80078 52.875 7.74522 52.875 8.91016C52.875 10.0751 51.9306 11.0195 50.7656 11.0195Z" fill="#BF6724"/>
<path d="M50.7656 6.80078H46.5469C47.7118 6.80078 48.6562 7.74522 48.6562 8.91016C48.6562 10.0751 47.7118 11.0195 46.5469 11.0195H50.7656C51.9306 11.0195 52.875 10.0751 52.875 8.91016C52.875 7.74508 51.9306 6.80078 50.7656 6.80078Z" fill="#A35418"/>
<path d="M51.3534 6.80077H20.6466C19.8062 6.80077 19.125 6.11958 19.125 5.2792V4.60055C19.125 2.6422 20.7125 1.05469 22.6709 1.05469H49.329C51.2875 1.05469 52.875 2.6422 52.875 4.60055V5.2792C52.875 6.11958 52.1938 6.80077 51.3534 6.80077Z" fill="#FFF7E6"/>
<path d="M49.3291 1.05469H45.1104C47.0687 1.05469 48.6562 2.6422 48.6562 4.60055V5.2792C48.6562 6.11958 47.975 6.80077 47.1346 6.80077H51.3534C52.1936 6.80077 52.875 6.11958 52.875 5.2792V4.60055C52.875 2.6422 51.2874 1.05469 49.3291 1.05469Z" fill="#EBE3D4"/>
<path d="M51.4285 11.0195H20.5715C19.1513 11.0195 18 12.1708 18 13.591V18.9245C18 19.0616 18.0982 19.1806 18.2334 19.2021C18.4193 19.2316 18.6188 19.2481 18.8353 19.2481C21.696 19.2481 21.696 16.5052 24.5566 16.5052C27.4172 16.5052 27.4172 19.2481 30.278 19.2481C33.1386 19.2481 33.1386 16.5052 35.999 16.5052C38.8597 16.5052 38.8598 19.2481 41.7203 19.2481C44.5811 19.2481 44.5811 16.5052 47.4418 16.5052C50.3027 16.5052 50.3027 19.2481 53.1636 19.2481C53.3805 19.2481 53.5801 19.2315 53.7661 19.2019C53.9014 19.1804 53.9996 19.0614 53.9996 18.9243V13.5909C54 12.1707 52.8487 11.0195 51.4285 11.0195Z" fill="#FFF7E6"/>
<path d="M51.4287 11.0195H47.21C48.6301 11.0195 49.7814 12.1708 49.7814 13.591V17.3956C50.7176 18.1966 51.3924 19.2481 53.164 19.2481C53.3809 19.2481 53.5806 19.2315 53.7666 19.2019C53.9019 19.1804 54 19.0614 54 18.9243V13.5909C54.0002 12.1707 52.8489 11.0195 51.4287 11.0195Z" fill="#EBE3D4"/>
<path d="M61.9176 31.5264C60.8853 29.5574 59.3761 27.8502 57.5532 26.5898C55.3615 25.0736 53.8087 22.8213 53.056 20.2892C53.0956 20.2901 53.1235 20.3029 53.164 20.3029C53.4265 20.3029 53.6851 20.2829 53.9326 20.2435C54.5829 20.1399 55.0547 19.5851 55.0547 18.9245V13.5908C55.0547 12.3202 54.3586 11.2539 53.3663 10.6062C53.6926 10.1087 53.9297 9.54816 53.9297 8.91C53.9297 8.1855 53.6431 7.54847 53.2319 7.01452C53.6563 6.55509 53.9297 5.95223 53.9297 5.27906V4.60041C53.9297 2.06381 51.8659 0 49.329 0H44.955C44.3724 0 43.9003 0.472219 43.9003 1.05469C43.9003 1.63716 44.3724 2.10938 44.955 2.10938H49.329C50.7028 2.10938 51.8203 3.22692 51.8203 4.60055V5.2792C51.8203 5.53669 51.6109 5.74608 51.3536 5.74608H20.6466C20.3891 5.74608 20.1797 5.53669 20.1797 5.2792V4.60055C20.1797 3.22692 21.2972 2.10938 22.6709 2.10938H40.4103C40.9929 2.10938 41.465 1.63716 41.465 1.05469C41.465 0.472219 40.9929 0 40.4103 0H22.6709C20.1341 0 18.0703 2.06381 18.0703 4.60055V5.2792C18.0703 5.95237 18.3438 6.55523 18.7681 7.01466C18.3569 7.54861 18.0703 8.18564 18.0703 8.91014C18.0703 9.5483 18.3074 10.1087 18.6337 10.6064C17.6414 11.2539 16.9453 12.3202 16.9453 13.5908V18.9243C16.9453 19.5851 17.4173 20.14 18.0679 20.2435C18.3146 20.2828 18.5728 20.3026 18.8355 20.3026C18.8892 20.3026 18.9263 20.286 18.9786 20.2845C18.7635 21.0151 18.4995 21.7304 18.143 22.4094C17.4223 23.784 16.4531 24.9823 15.2625 25.9708C14.8143 26.3429 14.7525 27.0077 15.1246 27.4559C15.4979 27.9055 16.163 27.9647 16.6098 27.5937C18.016 26.4264 19.1604 25.0116 20.0111 23.3893C20.6443 22.1828 21.0599 20.889 21.3126 19.5536C22.7912 18.557 23.0344 17.5597 24.5568 17.5597C26.7623 17.5597 26.9747 20.3026 30.2781 20.3026C33.5701 20.3026 33.7978 17.5597 35.9993 17.5597C38.2051 17.5597 38.4169 20.3026 41.7206 20.3026C45.0128 20.3026 45.2406 17.5597 47.4422 17.5597C48.9718 17.5597 49.218 18.5721 50.7007 19.5635C51.3759 23.094 53.3881 26.273 56.3534 28.3244C57.8969 29.3918 59.1749 30.8377 60.0494 32.5056C60.9217 34.1696 61.3828 36.0436 61.3828 37.925V37.9876H10.6172V37.925C10.6172 35.17 11.5959 32.4939 13.373 30.3898C13.7488 29.9447 13.6928 29.2792 13.2477 28.9035C12.8025 28.5276 12.1371 28.5837 11.7615 29.0288C9.66333 31.5132 8.50781 34.6726 8.50781 37.9252V61.2211C8.50781 67.1646 13.3432 72 19.2867 72H52.7133C58.6569 72 63.4922 67.1646 63.4922 61.2211V37.9252C63.4922 35.704 62.9477 33.4912 61.9176 31.5264ZM51.8203 8.91014C51.8203 9.49177 51.3473 9.96483 50.7656 9.96483H47.2943L48.174 7.85545H50.7656C51.3473 7.85545 51.8203 8.32852 51.8203 8.91014ZM40.2334 9.96483L41.1131 7.85545H45.8886L45.0089 9.96483H40.2334ZM33.1723 9.96483L34.0522 7.85545H38.8277L37.9479 9.96483H33.1723ZM26.1114 9.96483L26.9913 7.85545H31.7668L30.8869 9.96483H26.1114ZM24.7057 7.85545L23.8258 9.96483H21.2344C20.6528 9.96483 20.1797 9.49177 20.1797 8.91014C20.1797 8.32852 20.6528 7.85545 21.2344 7.85545H24.7057ZM47.4421 15.4505C44.1501 15.4505 43.922 18.1934 41.7205 18.1934C39.5148 18.1934 39.3027 15.4505 35.9992 15.4505C32.7071 15.4505 32.4795 18.1934 30.278 18.1934C28.0723 18.1934 27.8602 15.4505 24.5566 15.4505C21.3654 15.4505 21.0097 18.0515 19.0545 18.186V13.5908C19.0545 12.7545 19.7349 12.0741 20.5713 12.0741H51.4284C52.2647 12.0741 52.9452 12.7544 52.9452 13.5908V18.186C51.0036 18.053 50.628 15.4505 47.4421 15.4505ZM29.4934 40.0971C33.7656 40.0971 37.2413 43.5728 37.2413 47.845C37.2413 52.1172 33.7656 55.5929 29.4934 55.5929H10.6172V40.0971H29.4934ZM52.7133 69.8906H19.2867C14.5063 69.8906 10.6172 66.0015 10.6172 61.2211V57.7022H49.429C50.0116 57.7022 50.4837 57.23 50.4837 56.6475C50.4837 56.0651 50.0116 55.5929 49.429 55.5929H35.5141C37.8312 53.7877 39.3507 51.0031 39.3507 47.845C39.3507 44.6868 37.8312 41.9023 35.5141 40.0971H61.3828V55.5929H53.9813C53.3987 55.5929 52.9266 56.0651 52.9266 56.6475C52.9266 57.23 53.3987 57.7022 53.9813 57.7022H61.3828V61.2211C61.3828 66.0015 57.4937 69.8906 52.7133 69.8906Z" fill="#434242"/>
</svg>
