<svg width="18" height="18" viewBox="0 0 18 18" fill="none" xmlns="http://www.w3.org/2000/svg">
<path d="M17.3395 15.8482C17.7515 16.2598 17.7515 16.9278 17.3395 17.3395C17.1335 17.5455 16.8638 17.6485 16.5938 17.6485C16.3238 17.6485 16.0542 17.5455 15.8482 17.3395L12.4531 13.9445C13.0075 13.5085 13.5085 13.0075 13.9445 12.4531L17.3395 15.8482Z" fill="#4DBBEB"/>
<path d="M12.4393 10.9482L13.9444 12.4533C13.5084 13.0077 13.0075 13.5087 12.453 13.9446L10.948 12.4396V12.4392C11.52 12.024 12.0238 11.5202 12.439 10.9482H12.4393Z" fill="#FFF5CD"/>
<path d="M13.7109 7.03125C13.7109 8.49305 13.2388 9.84691 12.439 10.948C12.0238 11.52 11.52 12.0238 10.948 12.439C9.84691 13.2388 8.49305 13.7109 7.03125 13.7109C3.34793 13.7109 0.351562 10.7146 0.351562 7.03125C0.351562 3.34793 3.34793 0.351562 7.03125 0.351562C10.7146 0.351562 13.7109 3.34793 13.7109 7.03125Z" fill="#4DBBEB"/>
<path d="M7.03125 1.75781C9.93902 1.75781 12.3047 4.12348 12.3047 7.03125C12.3047 9.93902 9.93902 12.3047 7.03125 12.3047C4.12348 12.3047 1.75781 9.93902 1.75781 7.03125C1.75781 4.12348 4.12348 1.75781 7.03125 1.75781Z" fill="#BEE7F4"/>
<path d="M17.588 15.5995L12.8953 10.9068C13.6598 9.75533 14.0625 8.42186 14.0625 7.03125C14.0625 3.15422 10.9083 0 7.03125 0C3.15422 0 0 3.15422 0 7.03125C0 10.9083 3.15422 14.0625 7.03125 14.0625C8.42189 14.0625 9.75537 13.6598 10.9068 12.8954L12.2039 14.1925C12.2041 14.1926 12.2043 14.1928 12.2045 14.193L15.5995 17.588C15.8652 17.8537 16.2182 18 16.5938 18C16.9693 18 17.3223 17.8537 17.5879 17.5881C17.8536 17.3226 18 16.9695 18 16.5938C18 16.218 17.8536 15.8649 17.588 15.5995ZM11.4791 12.4732C11.8429 12.1755 12.1756 11.8429 12.4732 11.4791L13.4706 12.4765C13.1673 12.8345 12.8345 13.1673 12.4765 13.4706L11.4791 12.4732ZM0.703125 7.03125C0.703125 3.54192 3.54192 0.703125 7.03125 0.703125C10.5206 0.703125 13.3594 3.54192 13.3594 7.03125C13.3594 8.37334 12.9427 9.65626 12.1545 10.7415C11.7602 11.2847 11.2848 11.7602 10.7415 12.1545C10.7415 12.1545 10.7415 12.1545 10.7414 12.1545C9.65626 12.9427 8.37334 13.3594 7.03125 13.3594C3.54192 13.3594 0.703125 10.5206 0.703125 7.03125ZM17.0908 17.0908C16.9579 17.2237 16.7814 17.2969 16.5938 17.2969C16.4061 17.2969 16.2296 17.2237 16.0967 17.0908L12.975 13.9691C13.331 13.6636 13.6636 13.331 13.9691 12.975L17.0909 16.0968C17.2237 16.2295 17.2969 16.4059 17.2969 16.5938C17.2969 16.7816 17.2237 16.958 17.0908 17.0908Z" fill="#434242"/>
<path d="M12.6562 7.03125C12.6562 3.92959 10.1329 1.40625 7.03125 1.40625C3.92959 1.40625 1.40625 3.92959 1.40625 7.03125C1.40625 10.1329 3.92959 12.6562 7.03125 12.6562C10.1329 12.6562 12.6562 10.1329 12.6562 7.03125ZM7.03125 11.9531C4.31733 11.9531 2.10938 9.74517 2.10938 7.03125C2.10938 4.31733 4.31733 2.10938 7.03125 2.10938C9.74517 2.10938 11.9531 4.31733 11.9531 7.03125C11.9531 9.74517 9.74517 11.9531 7.03125 11.9531Z" fill="#434242"/>
<path d="M10.769 5.97639C10.9502 5.90674 11.0407 5.70336 10.971 5.5221C10.6683 4.73418 10.1412 4.06051 9.44666 3.57398C8.73559 3.07582 7.90035 2.8125 7.03125 2.8125C6.83712 2.8125 6.67969 2.96993 6.67969 3.16406C6.67969 3.3582 6.83712 3.51562 7.03125 3.51562C8.47614 3.51562 9.79562 4.42329 10.3147 5.77431C10.3684 5.91409 10.5016 5.99987 10.643 5.99987C10.6849 5.99987 10.7275 5.99231 10.769 5.97639Z" fill="#434242"/>
<path d="M10.8984 6.67969C10.7044 6.67969 10.5469 6.83719 10.5469 7.03125C10.5469 7.22531 10.7044 7.38281 10.8984 7.38281C11.0925 7.38281 11.25 7.22531 11.25 7.03125C11.25 6.83719 11.0925 6.67969 10.8984 6.67969Z" fill="#434242"/>
</svg>
