<svg width="773" height="754" viewBox="0 0 773 754" fill="none" xmlns="http://www.w3.org/2000/svg">
<g opacity="0.7">
<g clip-path="url(#clip0)">
<path d="M494.079 196.795L479.261 140.59L520.189 99.3533L575.915 114.285L590.742 170.461L549.806 211.727L494.079 196.795Z" fill="#FFF9DF"/>
<path d="M467.963 294.265L453.144 238.06L494.08 196.795L549.807 211.727L564.625 267.932L523.689 309.197L467.963 294.265Z" fill="#FFF5CE"/>
<path d="M441.853 391.707L427.034 335.502L467.962 294.265L523.688 309.197L538.515 365.374L497.579 406.639L441.853 391.707Z" fill="#FFF2BC"/>
<path d="M537.655 365.143L522.828 308.967L563.764 267.701L619.519 282.641L634.338 338.846L593.41 380.082L537.655 365.143Z" fill="#FFF8DD"/>
<path d="M563.762 267.701L548.943 211.496L589.879 170.23L645.634 185.17L660.453 241.375L619.517 282.64L563.762 267.701Z" fill="#FFFDF4"/>
<path d="M327.793 152.238L312.974 96.0334L353.903 54.7967L409.658 69.7362L424.455 125.905L383.548 167.178L327.793 152.238Z" fill="#FFE787"/>
<path d="M301.677 249.71L286.858 193.505L327.794 152.239L383.549 167.179L398.339 223.376L357.432 264.649L301.677 249.71Z" fill="#FFE26B"/>
<path d="M275.566 347.152L260.747 290.947L301.676 249.71L357.431 264.649L372.229 320.818L331.321 362.091L275.566 347.152Z" fill="#FFE370"/>
<path d="M371.365 320.586L356.539 264.41L397.475 223.144L453.23 238.084L468.049 294.289L427.12 335.526L371.365 320.586Z" fill="#FFE991"/>
<path d="M397.476 223.144L382.657 166.939L423.593 125.674L479.348 140.613L494.167 196.818L453.231 238.084L397.476 223.144Z" fill="#FFF1B6"/>
<path d="M345.249 418.056L330.43 361.851L371.366 320.586L427.121 335.525L441.94 391.73L401.004 432.996L345.249 418.056Z" fill="#FFEDA5"/>
<path d="M319.138 515.498L304.319 459.293L345.248 418.057L401.003 432.996L415.829 489.172L374.893 530.438L319.138 515.498Z" fill="#FFE991"/>
<path d="M293.03 612.94L278.203 556.764L319.139 515.498L374.894 530.438L389.713 586.643L348.785 627.88L293.03 612.94Z" fill="#FFE373"/>
<path d="M388.849 586.412L374.03 530.207L414.967 488.941L470.693 503.873L485.512 560.078L444.576 601.344L388.849 586.412Z" fill="#FFEDA5"/>
<path d="M414.969 488.941L400.142 432.765L441.078 391.499L496.805 406.431L511.624 462.636L470.695 503.873L414.969 488.941Z" fill="#FFEB9A"/>
<path d="M511.535 462.613L496.716 406.408L537.652 365.142L593.407 380.082L608.226 436.287L567.29 477.553L511.535 462.613Z" fill="#FFF9DF"/>
<path d="M485.428 560.055L470.609 503.85L511.537 462.613L567.292 477.553L582.119 533.729L541.183 574.995L485.428 560.055Z" fill="#FFF1BA"/>
<path d="M459.316 657.497L444.489 601.321L485.425 560.055L541.18 574.995L555.999 631.2L515.071 672.436L459.316 657.497Z" fill="#FFF9DF"/>
<path d="M555.107 630.961L540.317 574.763L581.224 533.49L636.979 548.43L651.798 604.635L610.862 645.9L555.107 630.961Z" fill="#FFF2BC"/>
<path d="M581.227 533.49L566.429 477.322L607.336 436.048L663.091 450.988L677.91 507.193L636.982 548.43L581.227 533.49Z" fill="#FFF8DD"/>
<path d="M179.738 373.709L164.919 317.504L205.855 276.238L261.61 291.178L276.429 347.383L235.493 388.648L179.738 373.709Z" fill="#FED83D"/>
<path d="M153.63 471.15L138.811 414.945L179.74 373.708L235.495 388.648L250.322 444.824L209.385 486.09L153.63 471.15Z" fill="#FED83D"/>
<path d="M127.519 568.592L112.692 512.416L153.628 471.15L209.383 486.09L224.202 542.295L183.274 583.532L127.519 568.592Z" fill="#FED83D"/>
<path d="M56.9653 497.484L42.1463 441.279L83.0824 400.014L138.837 414.953L153.656 471.158L112.72 512.424L56.9653 497.484Z" fill="#FED83D"/>
<path d="M197.231 639.506L182.412 583.301L223.34 542.064L279.095 557.003L293.893 613.172L252.986 654.445L197.231 639.506Z" fill="#FED83D"/>
<path d="M223.342 542.064L208.523 485.859L249.459 444.593L305.214 459.533L320.004 515.73L279.097 557.003L223.342 542.064Z" fill="#FED83D"/>
<path d="M249.458 444.593L234.631 388.417L275.567 347.151L331.322 362.091L346.112 418.288L305.213 459.532L249.458 444.593Z" fill="#FED83D"/>
</g>
</g>
</svg>
