<svg width="100" height="100" viewBox="0 0 100 100" fill="none" xmlns="http://www.w3.org/2000/svg">
<path d="M70.0418 19.9375H9.91645C8.99419 19.9375 8.24634 20.6854 8.24634 21.6076V56.6807H13.2567C15.1014 56.6807 16.5969 58.176 16.5969 60.0209C16.5969 61.8656 15.1012 63.3611 13.2567 63.3611H8.24634V68.3715C8.24634 69.2937 8.99419 70.0416 9.91645 70.0416H71.7119V21.6076C71.7119 20.6854 70.9641 19.9375 70.0418 19.9375Z" fill="#CDF398"/>
<path d="M91.7537 46.6602H71.7119V70.0422H98.4342V53.3406C98.4342 49.6512 95.4432 46.6602 91.7537 46.6602Z" fill="#FFDC64"/>
<path d="M71.7119 51.6699H89.8053C91.6502 51.6699 93.1455 53.1652 93.1455 55.0102V70.0414H71.7119V51.6699Z" fill="#FFC850"/>
<path d="M85.073 26.6182H71.7119V33.2988H90.0836V31.6287C90.0836 28.8613 87.8402 26.6182 85.073 26.6182Z" fill="#FFDC64"/>
<path d="M91.7537 46.66L88.4133 33.2988H71.7119V46.66H91.7537Z" fill="#B4E6FF"/>
<path d="M91.7537 53.3398H98.4343V60.0205H95.0941C93.2492 60.0205 91.7539 58.5252 91.7539 56.6803V53.3398H91.7537Z" fill="#F1F4FB"/>
<path d="M83.4029 58.3506C78.3693 58.3506 73.99 61.1367 71.7119 65.2484V70.0416H96.6486C95.825 63.4524 90.2152 58.3506 83.4029 58.3506Z" fill="#E1A546"/>
<path d="M93.1453 62.5801V70.0414H96.6486C96.29 67.1725 95.023 64.5867 93.1453 62.5801Z" fill="#FFC850"/>
<path d="M83.4029 80.0629C88.0149 80.0629 91.7537 76.3241 91.7537 71.7121C91.7537 67.1001 88.0149 63.3613 83.4029 63.3613C78.7909 63.3613 75.0521 67.1001 75.0521 71.7121C75.0521 76.3241 78.7909 80.0629 83.4029 80.0629Z" fill="#5B5D6E"/>
<path d="M78.3925 38.3092H89.666L88.4134 33.2988H71.712V46.66H76.7224V39.9793C76.7222 39.057 77.47 38.3092 78.3925 38.3092Z" fill="#9BD6FF"/>
<path d="M28.2881 58.3506C24.0707 58.3506 20.3157 60.3092 17.8672 63.3609H13.2569H8.24634V68.3713C8.24634 69.2936 8.99419 70.0414 9.91645 70.0414H71.7119V63.3607H38.709C36.2606 60.3092 32.5055 58.3506 28.2881 58.3506Z" fill="#A2CF62"/>
<path d="M28.288 80.0629C32.9 80.0629 36.6388 76.3241 36.6388 71.7121C36.6388 67.1001 32.9 63.3613 28.288 63.3613C23.676 63.3613 19.9373 67.1001 19.9373 71.7121C19.9373 76.3241 23.676 80.0629 28.288 80.0629Z" fill="#5B5D6E"/>
<path d="M28.2881 68.4756C26.5037 68.4756 25.0521 69.9272 25.0521 71.7115C25.0521 73.4959 26.5037 74.9475 28.2881 74.9475C30.0724 74.9475 31.524 73.4959 31.524 71.7115C31.524 69.9272 30.0724 68.4756 28.2881 68.4756Z" fill="#434242"/>
<path d="M83.4029 68.4756C81.6186 68.4756 80.167 69.9272 80.167 71.7115C80.167 73.4959 81.6186 74.9475 83.4029 74.9475C85.1873 74.9475 86.6389 73.4959 86.6389 71.7115C86.6389 69.9272 85.1873 68.4756 83.4029 68.4756Z" fill="#434242"/>
<path d="M40.0836 63.3607C40.0836 64.2254 40.7846 64.9265 41.6494 64.9265H65.0313C65.8959 64.9265 66.5971 64.2256 66.5971 63.3607C66.5971 62.4961 65.8961 61.7949 65.0313 61.7949H41.6492C40.7846 61.7949 40.0836 62.4961 40.0836 63.3607Z" fill="#434242"/>
<path d="M4.90603 58.2459H24.9478C25.8125 58.2459 26.5136 57.5449 26.5136 56.6801C26.5136 55.8154 25.8127 55.1143 24.9478 55.1143H4.90603C4.04138 55.1143 3.34021 55.8152 3.34021 56.6801C3.34021 57.5449 4.04138 58.2459 4.90603 58.2459Z" fill="#434242"/>
<path d="M52.2331 33.8618L38.3089 47.7859L31.0654 40.5423C30.4538 39.9308 29.4624 39.9308 28.8511 40.5423C28.2396 41.1538 28.2396 42.145 28.8511 42.7565L37.2019 51.1073C37.5075 51.4132 37.9083 51.5659 38.3089 51.5659C38.7095 51.5659 39.1103 51.4132 39.4159 51.1073L54.4472 36.0761C55.0587 35.4646 55.0587 34.4733 54.4472 33.8618C53.8361 33.2505 52.8445 33.2505 52.2331 33.8618Z" fill="#434242"/>
<path d="M92.9996 45.1877L90.41 34.8293C91.118 34.6789 91.6492 34.0508 91.6492 33.2982V31.6281C91.6492 28.002 88.699 25.052 85.073 25.052H73.2777V21.607C73.2777 19.8227 71.8262 18.3711 70.0418 18.3711H9.91641C8.13203 18.3711 6.68047 19.8227 6.68047 21.607V49.9996C6.68047 50.8643 7.38144 51.5654 8.24629 51.5654C9.11113 51.5654 9.81211 50.8644 9.81211 49.9996V21.607C9.81211 21.5494 9.85879 21.5027 9.91641 21.5027H70.0416C70.0992 21.5027 70.1459 21.5494 70.1459 21.607V50C70.1459 50.8646 70.8469 51.5658 71.7117 51.5658C72.5764 51.5658 73.2775 50.8648 73.2775 50V48.225H91.748C91.7494 48.225 91.7508 48.2254 91.7521 48.2254C91.7535 48.2254 91.7551 48.2252 91.7564 48.2252C94.0293 48.2266 95.9592 49.7185 96.6221 51.7742H91.7533C90.8887 51.7742 90.1875 52.4752 90.1875 53.34V56.6803C90.1875 59.3855 92.3883 61.5863 95.0935 61.5863H96.8682V68.4756H92.774C91.4291 64.5924 87.7375 61.7949 83.4025 61.7949C79.0676 61.7949 75.3758 64.5922 74.0311 68.4756H73.2771V56.6803C73.2771 55.8156 72.5762 55.1144 71.7113 55.1144C70.8467 55.1144 70.1455 55.8154 70.1455 56.6803V68.4754H37.6596C36.3146 64.592 32.623 61.7947 28.2881 61.7947C23.9531 61.7947 20.2613 64.592 18.9166 68.4754H9.91641C9.85879 68.4754 9.81211 68.4287 9.81211 68.3711V64.9264H16.5971C17.4617 64.9264 18.1629 64.2254 18.1629 63.3605C18.1629 62.4959 17.4619 61.7947 16.5971 61.7947H1.56582C0.701172 61.7947 0 62.4957 0 63.3605C0 64.2252 0.700977 64.9264 1.56582 64.9264H6.68066V68.3711C6.68066 70.1555 8.13223 71.607 9.9166 71.607H18.3744C18.374 71.6418 18.3717 71.6764 18.3717 71.7113C18.3717 77.1793 22.8203 81.6277 28.2881 81.6277C33.7559 81.6277 38.2045 77.1793 38.2045 71.7113C38.2045 71.6762 38.2021 71.6418 38.2018 71.607H73.4889C73.4885 71.6418 73.4861 71.6764 73.4861 71.7113C73.4861 77.1793 77.9348 81.6277 83.4025 81.6277C88.8703 81.6277 93.3189 77.1793 93.3189 71.7113C93.3189 71.6762 93.3166 71.6418 93.3162 71.607H98.434C99.2986 71.607 99.9998 70.9061 99.9998 70.0412V53.3396C100 49.2164 96.9576 45.7902 92.9996 45.1877ZM73.2777 34.8639H87.1908L89.7482 45.0935H73.2777V34.8639ZM85.073 28.1834C86.9725 28.1834 88.5178 29.7287 88.5178 31.6281V31.7324H73.2777V28.1834H85.073ZM28.2881 78.4965C24.5469 78.4965 21.5031 75.4529 21.5031 71.7115C21.5031 67.9701 24.5469 64.9266 28.2881 64.9266C32.0293 64.9266 35.073 67.9701 35.073 71.7115C35.073 75.4529 32.0293 78.4965 28.2881 78.4965ZM83.4029 78.4965C79.6617 78.4965 76.618 75.4529 76.618 71.7115C76.618 67.9701 79.6617 64.9266 83.4029 64.9266C87.1441 64.9266 90.1879 67.9701 90.1879 71.7115C90.1879 75.4529 87.1441 78.4965 83.4029 78.4965ZM95.0939 58.4547C94.1154 58.4547 93.3193 57.6586 93.3193 56.6801V54.9055H96.8684V58.4545H95.0939V58.4547Z" fill="#434242"/>
</svg>
