<svg width="80" height="80" viewBox="0 0 80 80" fill="none" xmlns="http://www.w3.org/2000/svg">
<path d="M69.3225 22.892L68.9854 22.7725V27.859L69.3225 27.7395C70.3488 27.3753 71.038 26.4012 71.038 25.3157C71.038 24.2303 70.3485 23.2564 69.3225 22.892Z" fill="#FBCB99"/>
<path d="M55.4558 57.9002C55.3408 57.9144 55.222 57.9135 55.1019 57.8943C54.7725 57.8411 54.4944 57.6643 54.3053 57.4196L50.2733 55.7393L46.8427 62.7905C46.6786 63.1277 46.3733 63.3746 46.0094 63.4644C45.9094 63.4889 45.808 63.5011 45.7069 63.5011C45.4402 63.5011 45.1772 63.4166 44.9583 63.2552L44.0572 62.5919L43.4609 64.1799L44.9861 74.9822H46.9789H52.9572V66.4383C52.9572 65.7405 53.5225 65.1752 54.2203 65.1752C54.9181 65.1752 55.4834 65.7405 55.4834 66.4383V74.9822H60.7236V66.8066C60.7238 60.9579 56.8903 58.5841 55.4558 57.9002Z" fill="#EEF0F8"/>
<path d="M58.9667 38.5058H57.0123C56.5172 38.5058 56.0005 38.465 55.4772 38.3844L55.3126 38.3591L55.2245 38.5002C55.0498 38.7794 54.8442 39.0432 54.6133 39.2838L54.5428 39.3582L54.5423 41.3682L54.5369 41.506L57.9434 44.8241L61.4361 41.1986V38.2002L61.1291 38.2679C60.415 38.4258 59.6873 38.5058 58.9667 38.5058Z" fill="#FBCB99"/>
<path d="M26.3225 35.971C26.3225 37.1882 27.1036 38.2494 28.2664 38.6119L28.5942 38.7141V33.2275L28.2664 33.3297C27.1036 33.6927 26.3225 34.7539 26.3225 35.971Z" fill="#EDBA89"/>
<path d="M52.6047 38.3277L52.6536 38.2977L52.6847 38.2499C52.7966 38.0774 52.9547 37.9446 53.1417 37.8659L53.1948 37.8435L53.2331 37.8004C53.6822 37.2927 53.9294 36.6434 53.9294 35.9715C53.9294 34.7545 53.1483 33.6932 51.9858 33.3307L51.658 33.2285V38.7148L51.9859 38.6124C52.1955 38.5466 52.4039 38.451 52.6047 38.3277Z" fill="#FBCB99"/>
<path d="M41.1556 47.7949C45.832 47.7949 49.6364 43.9902 49.6364 39.3141V31.9926L49.4719 31.9315C46.8391 30.9512 45.3348 28.6757 44.5364 26.9395L44.3855 26.6113L44.1289 26.8657C39.8495 31.1096 33.4166 32.0009 30.8494 32.1871L30.615 32.2041V39.3143C30.615 43.9907 34.4197 47.7951 39.0959 47.7951H41.1553V47.7949H41.1556Z" fill="#FBCB99"/>
<path d="M41.1555 49.8155H39.0963C38.3139 49.8155 37.5241 49.7253 36.7489 49.5477L36.4399 49.4767V52.8792C36.4399 52.8902 36.4391 52.9009 36.4381 52.9117L36.4302 53.0506L40.0785 56.6041L43.8117 52.7289V49.4766L43.5027 49.5475C42.7277 49.7255 41.938 49.8155 41.1555 49.8155Z" fill="#FBCB99"/>
<path d="M62.1663 16.8455L62.0154 16.5234L61.7609 16.7722C59.6771 18.8089 56.8448 20.2709 53.3421 21.1183L53.0354 21.1923L53.1748 21.4755C54.1256 23.4036 54.6074 25.4736 54.6074 27.6284V32.6508L54.6746 32.7234C55.497 33.6117 55.9498 34.7653 55.9498 35.9717C55.9498 36.0408 55.9473 36.1094 55.9446 36.1777L55.9348 36.4145L56.1706 36.4392C56.467 36.4702 56.7423 36.4852 57.0121 36.4852H58.9665C63.3763 36.4852 66.9638 32.8975 66.9638 28.4878V21.5773L66.8009 21.5155C64.342 20.5828 62.9234 18.4612 62.1663 16.8455Z" fill="#FBCB99"/>
<path d="M25.3989 39.0182C25.2566 38.846 25.1244 38.6612 25.0063 38.4687L24.9163 38.3221L24.7469 38.3523C24.1686 38.4545 23.5768 38.5065 22.9874 38.5065H21.033C20.3124 38.5065 19.5847 38.4265 18.8705 38.2688L18.5635 38.2012V41.1996L22.0563 44.8251L25.4619 41.5076L25.4568 39.0885L25.3989 39.0182Z" fill="#FBCB99"/>
<path d="M59.0336 38.5066H60.9879C61.1372 38.5066 61.2867 38.501 61.4364 38.4943V38.2012L61.1293 38.2688C60.4243 38.4245 59.7065 38.5038 58.9951 38.5057C59.0078 38.5059 59.0207 38.5066 59.0336 38.5066Z" fill="#EDBA89"/>
<path d="M56.5582 41.5064L56.5637 41.3686L56.5641 39.3586L56.6346 39.2842C56.8638 39.045 57.0682 38.7831 57.2421 38.5061H57.0126C56.5174 38.5061 56.0007 38.4653 55.4774 38.3847L55.3129 38.3594L55.2248 38.5005C55.0501 38.7797 54.8445 39.0434 54.6135 39.2841L54.5431 39.3584L54.5426 41.3684L54.5371 41.5063L57.9437 44.8244L58.9223 43.8088L56.5582 41.5064Z" fill="#EDBA89"/>
<path d="M43.8119 49.7954V49.4775L43.5029 49.5485C42.7275 49.7261 41.938 49.8163 41.1555 49.8163H43.1766C43.388 49.8161 43.5999 49.8083 43.8119 49.7954Z" fill="#EDBA89"/>
<path d="M38.4515 53.0516L38.4595 52.9127C38.4601 52.9019 38.4612 52.8911 38.4612 52.8802V49.7954C37.8884 49.76 37.3149 49.6782 36.7492 49.5485L36.4401 49.4775V52.88C36.4401 52.891 36.4393 52.9018 36.4384 52.9125L36.4304 53.0514L40.0787 56.6049L41.0573 55.5893L38.4515 53.0516Z" fill="#EDBA89"/>
<path d="M23.0544 38.5066H25.0088C25.0162 38.5066 25.0238 38.5062 25.0313 38.5062C25.0233 38.4935 25.0143 38.4816 25.0066 38.4688L24.9166 38.3223L24.7472 38.3524C24.1812 38.4526 23.6019 38.5037 23.0249 38.5059C23.0347 38.5057 23.0444 38.5066 23.0544 38.5066Z" fill="#EDBA89"/>
<path d="M20.5847 41.1995V38.4941C20.0117 38.468 19.437 38.3938 18.8706 38.2688L18.5636 38.2012V41.1996L22.0564 44.8251L23.0989 43.8094L20.5847 41.1995Z" fill="#EDBA89"/>
<path d="M27.7462 20.1868L27.597 20.0462C26.7809 19.2765 26.0848 18.2955 25.5276 17.1307L25.3764 16.8145L25.124 17.058C21.2587 20.7929 15.5459 21.5991 13.2692 21.7723L13.0358 21.7899V28.4871C13.0358 32.897 16.6233 36.4845 21.0331 36.4845H22.9875C23.3411 36.4845 23.7112 36.4582 24.088 36.4063L24.3136 36.3585L24.3053 36.1301C24.3033 36.0773 24.3014 36.0243 24.3014 35.9709C24.3014 34.7891 24.7378 33.6534 25.5303 32.7727L25.5951 32.7007V27.6277C25.5951 25.0599 26.3019 22.5473 27.639 20.3616L27.7462 20.1868Z" fill="#FBCB99"/>
<path d="M32.4679 39.3141V32.204L32.7023 32.187C35.0729 32.0149 40.739 31.2395 44.9627 27.7799C44.8034 27.4916 44.6604 27.2087 44.5366 26.9395L44.3857 26.6113L44.1291 26.8657C39.8498 31.1096 33.4168 32.0009 30.8496 32.1871L30.6152 32.2041V39.3143C30.6152 43.9907 34.4199 47.7951 39.0962 47.7951H40.949C36.2726 47.7949 32.4679 43.9904 32.4679 39.3141Z" fill="#EDBA89"/>
<path d="M57.7877 36.4144L57.7975 36.1775C57.8003 36.1092 57.8027 36.0406 57.8027 35.9716C57.8027 34.7652 57.3499 33.6114 56.5275 32.7233L56.4603 32.6506V27.6283C56.4603 25.4734 55.9785 23.4034 55.0277 21.4753L54.8883 21.1922L55.195 21.1181C58.1575 20.4016 60.6381 19.2434 62.5946 17.6716C62.4338 17.3878 62.2902 17.1095 62.1666 16.8455L62.0156 16.5234L61.7611 16.7722C59.6774 18.8089 56.845 20.2709 53.3424 21.1183L53.0356 21.1923L53.175 21.4755C54.1258 23.4036 54.6077 25.4736 54.6077 27.6284V32.6508L54.6749 32.7234C55.4972 33.6117 55.95 34.7653 55.95 35.9717C55.95 36.0408 55.9475 36.1094 55.9449 36.1777L55.935 36.4145L56.1708 36.4392C56.4672 36.4702 56.7425 36.4852 57.0124 36.4852H58.865C58.595 36.4852 58.3199 36.47 58.0235 36.4392L57.7877 36.4144Z" fill="#EDBA89"/>
<path d="M14.8885 28.4882V21.7911L15.1219 21.7734C17.2058 21.615 22.1674 20.9243 25.9569 17.9448C25.806 17.6846 25.6625 17.4139 25.5275 17.1317L25.3763 16.8154L25.1239 17.059C21.2586 20.7939 15.5458 21.6001 13.2691 21.7732L13.0356 21.7909V28.4881C13.0356 32.8979 16.6231 36.4854 21.033 36.4854H22.8856C18.4761 36.4856 14.8885 32.8979 14.8885 28.4882Z" fill="#EDBA89"/>
<path d="M8.96204 25.3156C8.96204 26.4011 9.65157 27.3748 10.6778 27.7393L11.0148 27.8589V22.7725L10.6778 22.892C9.65157 23.2562 8.96204 24.23 8.96204 25.3156Z" fill="#EDBA89"/>
<path d="M33.5397 14.7558C33.5122 14.6961 33.4917 14.6395 33.4771 14.5827C32.1967 9.59609 27.7017 6.11328 22.5458 6.11328H21.5211C15.2985 6.11328 10.236 11.1758 10.236 17.3984V20.8986L10.5428 20.8312C10.6396 20.81 10.7367 20.7905 10.8355 20.7753L11.0039 20.7495L11.0431 20.5837C11.1513 20.1261 11.5552 19.8066 12.0142 19.8061L12.0392 19.807C12.0475 19.807 12.0558 19.8067 12.0589 19.8064C12.1472 19.8064 20.93 19.7423 24.9274 14.2167C25.1564 13.8998 25.5639 13.7398 25.9486 13.8191C26.3366 13.8984 26.6441 14.1994 26.7319 14.5872C26.7369 14.6089 27.2549 16.7866 28.7631 18.3586L28.9525 18.5558L29.1342 18.3519C30.3491 16.9878 31.7917 15.89 33.4219 15.0886L33.6432 14.98L33.5397 14.7558Z" fill="#694B4B"/>
<path d="M40.6413 15.6826H39.5618C32.9752 15.6826 27.6165 21.0411 27.6165 27.6279V31.4054L27.9302 31.327C28.0849 31.2884 28.2433 31.2575 28.4016 31.2345L28.5793 31.1973L28.6154 31.0239C28.6172 31.015 28.6197 31.0064 28.6221 30.9979L28.6333 30.9542C28.6355 30.9453 28.6375 30.9362 28.6402 30.9278L28.6641 30.8626C28.6675 30.8532 28.6705 30.8437 28.6744 30.8348L28.7044 30.7726C28.7085 30.7637 28.7125 30.755 28.7166 30.7475L28.7519 30.6895C28.7571 30.6806 28.7622 30.6718 28.7672 30.6643L28.8069 30.6112C28.813 30.6029 28.8186 30.5945 28.8263 30.5854L28.8708 30.5365C28.8774 30.5292 28.8838 30.5215 28.8907 30.5146L28.9416 30.4687C28.9486 30.4621 28.9555 30.4556 28.9629 30.4495L29.0186 30.4081C29.0258 30.4025 29.0332 30.3968 29.0415 30.3911L29.1008 30.355C29.1082 30.3504 29.1157 30.3454 29.1244 30.3406L29.2111 30.2989C29.2215 30.2946 29.2321 30.2909 29.2424 30.2875L29.3043 30.265C29.3208 30.26 29.3379 30.2561 29.3674 30.249L29.4016 30.24C29.4261 30.2351 29.4513 30.2318 29.478 30.2287L29.5019 30.2248C29.5357 30.2212 29.5697 30.2196 29.6044 30.2196H29.6105C29.7086 30.2196 39.4865 30.1484 43.9433 23.987C44.1726 23.6698 44.5776 23.5095 44.9646 23.5893C45.3529 23.6687 45.66 23.9696 45.7477 24.3576C45.7593 24.4076 46.9577 29.3542 50.8746 30.2457L50.8988 30.2526C50.9197 30.2579 50.9404 30.2632 50.9611 30.2701L50.9997 30.2845C51.0172 30.2909 51.035 30.2973 51.054 30.3057C51.0641 30.3101 51.0736 30.3151 51.0835 30.32L51.196 30.0939L51.105 30.3304C51.1165 30.3362 51.1283 30.3418 51.1399 30.3484C51.1555 30.357 51.1704 30.3664 51.188 30.3781C51.1994 30.3851 51.211 30.392 51.2211 30.3993C51.2371 30.4104 51.2521 30.4223 51.2774 30.442L51.2975 30.4579C51.3125 30.4706 51.3269 30.484 51.3493 30.5053L51.369 30.5243C51.3815 30.5373 51.3933 30.5507 51.4066 30.5659C51.4166 30.577 51.4263 30.5884 51.4357 30.6C51.4443 30.6106 51.4522 30.6218 51.464 30.6381C51.4741 30.6518 51.484 30.6657 51.4935 30.6801L51.5157 30.7167C51.5251 30.7325 51.5343 30.7484 51.5433 30.7656L51.5621 30.805C51.5693 30.8206 51.5768 30.8361 51.5836 30.8531C51.5883 30.8653 51.5927 30.8775 51.6011 30.9012C51.6058 30.9151 51.6111 30.929 51.615 30.9432C51.6199 30.96 51.624 30.977 51.6321 31.01L51.6705 31.2086L51.8496 31.2342C51.988 31.2542 52.1313 31.2817 52.275 31.3159L52.5863 31.39V27.6275C52.5865 21.0412 47.2279 15.6826 40.6413 15.6826Z" fill="#694B4B"/>
<path d="M58.4787 6.1123H57.454C52.2981 6.1123 47.8029 9.59512 46.5228 14.5818C46.5134 14.6187 46.5014 14.6545 46.4882 14.6892L46.4053 14.9071L46.6159 15.0073C48.649 15.9739 50.4421 17.4379 51.8006 19.2409L51.8965 19.3684L52.0529 19.3365C55.0475 18.7243 59.1296 17.2864 61.5706 13.9117C61.8 13.5945 62.2059 13.4345 62.5918 13.514C62.9801 13.5934 63.2873 13.8943 63.3751 14.2825C63.3859 14.3295 64.5192 18.9939 68.1986 19.8307C68.5709 19.9154 68.8686 20.2109 68.9568 20.5832L68.9961 20.7486L69.1643 20.7743C69.2632 20.7895 69.3603 20.809 69.4567 20.8303L69.7635 20.8976V17.3975C69.764 11.175 64.7014 6.1123 58.4787 6.1123Z" fill="#694B4B"/>
<path d="M12.7623 17.3986C12.7623 11.427 17.4253 6.52687 23.3008 6.14078C23.0508 6.12406 22.7994 6.11328 22.5459 6.11328H21.5212C15.2986 6.11328 10.2361 11.1758 10.2361 17.3984V20.8986L10.543 20.8313C10.6397 20.81 10.7369 20.7905 10.8356 20.7753L11.0041 20.7495L11.0433 20.5837C11.1514 20.1261 11.5553 19.8066 12.0144 19.8061L12.0394 19.807C12.0476 19.807 12.0559 19.8067 12.0591 19.8064C12.0737 19.8064 12.3295 19.8044 12.7625 19.7761V17.3983H12.7623V17.3986Z" fill="#563B3B"/>
<path d="M30.1425 27.6279C30.1425 21.2843 35.1136 16.082 41.3643 15.7065C41.1247 15.6921 40.8839 15.6826 40.6408 15.6826H39.5613C32.9747 15.6826 27.616 21.0411 27.616 27.6279V31.4054L27.9297 31.327C28.0844 31.2884 28.2428 31.2575 28.4011 31.2345L28.5788 31.1973L28.6149 31.0239C28.6167 31.015 28.6192 31.0064 28.6216 30.9979L28.6328 30.9542C28.635 30.9453 28.6371 30.9362 28.6397 30.9278L28.6636 30.8626C28.6671 30.8532 28.67 30.8437 28.6739 30.8348L28.7039 30.7726C28.708 30.7637 28.7121 30.755 28.7161 30.7475L28.7514 30.6895C28.7566 30.6806 28.7617 30.6718 28.7667 30.6643L28.8064 30.6112C28.8125 30.6029 28.8182 30.5945 28.8258 30.5854L28.8703 30.5365C28.8769 30.5292 28.8833 30.5215 28.8902 30.5146L28.9411 30.4687C28.9482 30.4621 28.955 30.4556 28.9624 30.4495L29.0182 30.4081C29.0253 30.4025 29.0327 30.3968 29.041 30.3911L29.1003 30.355C29.1077 30.3504 29.1152 30.3454 29.1239 30.3406L29.2107 30.2989C29.221 30.2946 29.2316 30.2909 29.2419 30.2875L29.3038 30.265C29.3203 30.26 29.3374 30.2561 29.3669 30.249L29.4011 30.24C29.4257 30.2351 29.4508 30.2318 29.4775 30.2287L29.5014 30.2248C29.5352 30.2212 29.5692 30.2196 29.6039 30.2196H29.61C29.6233 30.2196 29.8136 30.2181 30.1421 30.2009V27.6279H30.1425Z" fill="#563B3B"/>
<path d="M49.1422 15.0073L48.9316 14.9071L49.0146 14.6892C49.0277 14.6545 49.0397 14.6187 49.0491 14.5818C50.2665 9.84027 54.3908 6.46074 59.2257 6.1398C58.9785 6.1234 58.7301 6.1123 58.479 6.1123H57.4543C52.2983 6.1123 47.8032 9.59512 46.523 14.5818C46.5136 14.6187 46.5016 14.6545 46.4885 14.6892L46.4055 14.9071L46.6161 15.0073C48.6493 15.9739 50.4424 17.4379 51.8008 19.2409L51.8968 19.3684L52.0532 19.3365C52.669 19.2107 53.331 19.049 54.0149 18.8437C52.6986 17.2229 51.024 15.902 49.1422 15.0073Z" fill="#563B3B"/>
<path d="M21.0118 53.0578L20.1823 58.1992L20.5868 57.8129C21.6158 56.8409 22.654 56.2195 23.344 55.869L23.4535 55.8134L23.0088 53.0576L21.0118 53.0578Z" fill="#EF4C35"/>
<path d="M20.1608 49.0658L20.8376 50.8686H23.2128L23.9762 49.0464L22.0819 47.6523L20.1608 49.0658Z" fill="#EF4C35"/>
<path d="M59.162 50.8686L59.8392 49.0658L57.9181 47.6523L56.0237 49.0462L56.7873 50.8686H59.162Z" fill="#EF4C35"/>
<path d="M56.991 53.0586L56.5461 55.8144L56.6557 55.87C57.3457 56.2205 58.384 56.8422 59.4122 57.8133L59.8174 58.2002L58.9879 53.0588L56.991 53.0586Z" fill="#EF4C35"/>
<path d="M41.4019 62.9547L42.1452 60.9753L40.0505 59.4336L37.9824 60.9558L38.8196 62.9547H41.4019Z" fill="#EF4C35"/>
<path d="M39.0235 65.1445L37.6265 73.803H42.6249L41.2282 65.1445H39.0235Z" fill="#EF4C35"/>
<path d="M76.448 45.8815C74.8341 44.3575 73.1975 43.7162 72.8798 43.6009L67.4869 41.3539L63.7098 38.8614V37.5934C66.5308 36.1181 68.5853 33.3721 69.1067 30.1189C71.4767 29.8036 73.3116 27.7706 73.3116 25.3157C73.3116 24.0559 72.8281 22.9071 72.0375 22.0443V17.3978C72.0375 9.92137 65.955 3.83887 58.4786 3.83887H57.4539C51.2987 3.83887 45.9291 7.97215 44.3517 13.9039C43.1678 13.5834 41.9245 13.4095 40.6408 13.4095H39.5612C38.2092 13.4095 36.9023 13.6032 35.6625 13.9573C34.1034 7.99668 28.7192 3.83887 22.5453 3.83887H21.5206C14.0442 3.83887 7.96172 9.92137 7.96172 17.3978V22.0445C7.17109 22.9073 6.68766 24.0561 6.68766 25.3159C6.68766 27.7707 8.5225 29.804 10.8925 30.119C11.4139 33.3723 13.4684 36.1182 16.2894 37.5936V38.8615L12.513 41.3537L7.12 43.6007C6.80234 43.7159 5.16594 44.3573 3.55188 45.8814C1.93156 47.4115 0 50.1628 0 54.5796V62.2568C0 62.9545 0.565625 63.5218 1.26312 63.5218H17.1248C16.8895 64.5029 16.7498 65.5942 16.7498 66.8064V74.8957C16.7498 75.5936 17.3155 76.1609 18.013 76.1609H33.0209H36.3411H43.9105H43.9136H46.9788H47.6909C48.3887 76.1609 48.9541 75.5956 48.9541 74.8978C48.9541 74.2001 48.3887 73.6346 47.6909 73.6346H46.9788H44.9859L43.4608 64.1796L44.057 62.5917L44.9581 63.255C45.1772 63.4164 45.44 63.5009 45.7067 63.5009C45.8078 63.5009 45.9092 63.4887 46.0092 63.4642C46.3731 63.3743 46.6787 63.1275 46.8425 62.7903L50.2731 55.739L54.8502 57.6464C54.8777 57.6578 54.9055 57.6682 54.9337 57.6778C54.9917 57.6971 60.7236 59.7056 60.7236 66.8064V73.6346H55.4834V66.4384C55.4834 65.7406 54.9181 65.1753 54.2203 65.1753C53.5225 65.1753 52.9572 65.7406 52.9572 66.4384V73.6346H51.6213C50.9234 73.6346 50.3581 74.2003 50.3581 74.8978C50.3581 75.5956 50.9234 76.1609 51.6213 76.1609H61.987C62.6848 76.1609 63.2502 75.5795 63.2502 74.8818V66.806C63.2502 65.5939 63.1105 64.5026 62.8752 63.5215H78.737C79.4348 63.5215 80.0002 62.9409 80.0002 62.2434V54.5793C80 50.1628 78.0684 47.4115 76.448 45.8815ZM59.0456 50.7H56.8994L56.2305 49.1031L57.9183 47.861L59.6369 49.1257L59.0456 50.7ZM50.1005 52.9301L46.0894 50.2834C46.088 50.2826 46.0867 50.2818 46.0855 50.281V48.8668C47.2961 48.2395 48.3725 47.3895 49.2609 46.3701L51.4142 50.7961C51.5783 51.1332 51.8836 51.3801 52.2475 51.47C52.3475 51.4945 52.4489 51.5067 52.55 51.5067C52.8167 51.5067 53.0795 51.4221 53.2986 51.2607L54.1366 50.6442L54.7542 52.1185L54.3383 54.6962L50.1005 52.9301ZM34.8669 60.3214L32.0772 54.5867L34.2047 53.1829C34.1008 53.604 34.2153 54.067 34.5483 54.3914L38.1533 57.9028L34.8669 60.3214ZM30.1169 52.8534C30.062 52.8679 30.0073 52.885 29.9537 52.9075L25.6617 54.696L25.2458 52.1182L25.8634 50.644L26.7014 51.2606C26.9205 51.422 27.1834 51.5065 27.4502 51.5065C27.5511 51.5065 27.6527 51.4943 27.7525 51.4698C28.1166 51.38 28.422 51.1331 28.5858 50.7959L30.8295 46.1837C31.7475 47.2864 32.882 48.201 34.1664 48.8665V50.1812L30.1169 52.8534ZM53.0227 48.3273L50.8748 43.9126C51.118 43.4007 51.3203 42.8662 51.4809 42.314L52.2795 41.787C52.2342 42.1642 52.3577 42.5573 52.6509 42.8429L56.0178 46.1228L53.0227 48.3273ZM53.6763 35.9712C53.6763 36.6086 53.4359 37.1893 53.0434 37.6329C52.808 37.7318 52.6095 37.9004 52.4723 38.1123C52.2973 38.2198 52.1097 38.3087 51.91 38.3711V33.5715C52.9322 33.8903 53.6763 34.8456 53.6763 35.9712ZM49.3839 39.3135C49.3839 43.8506 45.6928 47.5418 41.1555 47.5418H39.0963C34.5592 47.5418 30.8677 43.8507 30.8677 39.3135V32.4384C33.5773 32.2418 39.9873 31.3279 44.3069 27.0445C45.1183 28.8092 46.6636 31.1545 49.3838 32.1673V39.3134H49.3839V39.3135ZM28.3416 38.3711C27.3194 38.0525 26.5752 37.0971 26.5752 35.9712C26.5752 34.8453 27.3192 33.89 28.3416 33.5714V38.3711ZM27.3489 42.8429C27.6422 42.5575 27.7655 42.1642 27.7203 41.787L28.8297 42.519C28.9503 42.9043 29.0941 43.2792 29.2556 43.6446L26.9775 48.3275L23.9822 46.1229L27.3489 42.8429ZM22.0819 47.861L23.7698 49.1034L23.1009 50.7003H20.9545L20.3634 49.126L22.0819 47.861ZM21.1552 53.2264H22.8655L23.2677 55.7192C22.5386 56.0895 21.5019 56.7175 20.4713 57.6906C20.457 57.704 20.4427 57.7182 20.4283 57.7318L21.1552 53.2264ZM40.073 56.2461L36.6891 52.9503C36.6905 52.9267 36.6927 52.9032 36.6927 52.8793V50.875C36.6927 50.8739 36.6927 50.8729 36.6927 50.8717V49.7937C37.4661 49.9711 38.2698 50.0679 39.0964 50.0679H41.1556C41.982 50.0679 42.7858 49.9711 43.5594 49.7937V52.6268L40.073 56.2461ZM59.8366 46.1364L63.3564 42.4826C63.5266 42.3061 63.6336 42.0926 63.6809 41.869L65.4028 43.0054L62.8138 48.3273L59.8366 46.1364ZM61.1836 41.0968L57.9378 44.4661L54.7936 41.4031C54.7941 41.3893 54.7956 41.3756 54.7956 41.3617V39.46C54.7956 39.4595 54.7956 39.4592 54.7956 39.4586C55.0372 39.2071 55.2531 38.931 55.4386 38.634C55.9581 38.714 56.4844 38.7582 57.0123 38.7582H58.9666C59.7278 38.7582 60.4691 38.6725 61.1834 38.5145V41.0965H61.1836V41.0968ZM66.7116 28.4875C66.7116 32.7579 63.2372 36.2321 58.9669 36.2321H57.0127C56.7397 36.2321 56.4677 36.2157 56.1973 36.1875C56.2003 36.1157 56.203 36.0436 56.203 35.9711C56.203 34.652 55.693 33.4503 54.8605 32.5511V27.6278C54.8605 25.3806 54.3344 23.2543 53.4019 21.3632C56.1722 20.6932 59.4225 19.4109 61.9378 16.9523C62.7189 18.6192 64.1778 20.7903 66.7117 21.7514V28.4875H66.7116ZM69.2378 27.5011V23.13C70.1378 23.4495 70.7853 24.3073 70.7853 25.3156C70.7853 26.3239 70.138 27.1817 69.2378 27.5011ZM46.7677 14.6445C48.0192 9.76949 52.4136 6.36496 57.4541 6.36496H58.4788C64.5622 6.36496 69.5114 11.3142 69.5114 17.3976V20.5837C69.4097 20.5612 69.3072 20.5407 69.203 20.5248C69.0939 20.0643 68.7323 19.6929 68.255 19.5843C64.7189 18.78 63.6314 14.267 63.6214 14.2248C63.5119 13.7407 63.1287 13.3659 62.6425 13.2664C62.1561 13.1671 61.6569 13.3615 61.3659 13.7637C58.9977 17.0381 55.0488 18.4664 52.0023 19.089C50.6234 17.2592 48.8133 15.7723 46.7244 14.7793C46.7409 14.7354 46.7558 14.6907 46.7677 14.6445ZM40.6413 15.9354C47.0886 15.9354 52.3341 21.1807 52.3341 27.6281V31.0707C52.187 31.0356 52.0378 31.0065 51.8861 30.9846C51.8828 30.9681 51.8783 30.9521 51.8745 30.9357C51.8695 30.9145 51.8644 30.8932 51.8581 30.8725C51.852 30.8517 51.8448 30.8317 51.8378 30.8115C51.8316 30.7939 51.8255 30.7761 51.8184 30.7584C51.8098 30.737 51.8003 30.7164 51.7905 30.6956C51.7831 30.6796 51.7756 30.6637 51.7675 30.6481C51.757 30.6279 51.7456 30.6084 51.7339 30.5889C51.7247 30.5732 51.7156 30.5576 51.7056 30.5423C51.6941 30.5245 51.6817 30.5073 51.6692 30.4901C51.6577 30.474 51.6459 30.4579 51.6334 30.4423C51.6214 30.4273 51.6087 30.4128 51.5961 30.3984C51.5816 30.3818 51.5673 30.3656 51.552 30.35C51.5397 30.3373 51.5269 30.3254 51.5144 30.3134C51.4975 30.2975 51.4805 30.2815 51.4627 30.2664C51.4497 30.2554 51.4362 30.2451 51.4228 30.2345C51.4042 30.22 51.3858 30.2057 51.3664 30.1925C51.3516 30.1821 51.3361 30.1726 51.3208 30.1628C51.302 30.1511 51.2834 30.1392 51.2641 30.1282C51.2458 30.1179 51.2269 30.1087 51.208 30.0995C51.1906 30.0909 51.1734 30.0821 51.1558 30.0742C51.1328 30.064 51.1094 30.0553 51.0858 30.0465C51.0708 30.0409 51.0561 30.0351 51.0409 30.0301C51.0144 30.0214 50.987 30.0143 50.9595 30.0071C50.9487 30.0045 50.9384 30.0006 50.9273 29.9981C47.1589 29.1406 46.0045 24.345 45.9941 24.3C45.8845 23.8159 45.5014 23.4409 45.0153 23.3415C44.5292 23.2417 44.0295 23.4365 43.7388 23.8387C39.3488 29.9078 29.7559 29.9667 29.6108 29.9667C29.6081 29.9667 29.6067 29.9667 29.6047 29.9667C29.5613 29.9667 29.5183 29.9689 29.4758 29.9732C29.4641 29.9745 29.4527 29.977 29.4409 29.9784C29.4106 29.9823 29.3802 29.9862 29.3505 29.9921C29.3372 29.9948 29.3244 29.999 29.3112 30.0023C29.2837 30.0089 29.2564 30.015 29.2295 30.0234C29.2139 30.0282 29.1989 30.0346 29.1834 30.0403C29.1602 30.0486 29.1364 30.0561 29.1139 30.0657C29.0952 30.0737 29.0775 30.0832 29.0594 30.0918C29.0408 30.1007 29.0219 30.1089 29.0037 30.1186C28.9852 30.1287 28.9677 30.1403 28.9498 30.1512C28.9331 30.1614 28.9159 30.1707 28.8997 30.1817C28.882 30.1937 28.8655 30.207 28.8486 30.2198C28.8333 30.2312 28.8175 30.242 28.8027 30.2542C28.7866 30.2675 28.7717 30.2821 28.7561 30.2961C28.7416 30.3092 28.7266 30.3217 28.7128 30.3354C28.6984 30.3498 28.6855 30.3653 28.6719 30.3803C28.6583 30.3951 28.6441 30.4093 28.6313 30.425C28.6186 30.4403 28.6073 30.4567 28.5953 30.4725C28.583 30.489 28.5698 30.5048 28.5583 30.522C28.547 30.5386 28.5373 30.5562 28.5269 30.5732C28.5163 30.5907 28.5048 30.6078 28.4948 30.6257C28.4853 30.6434 28.4772 30.6621 28.4683 30.6803C28.4594 30.6989 28.4495 30.7168 28.4416 30.7359C28.4338 30.7542 28.4278 30.7732 28.4208 30.792C28.4134 30.8118 28.4053 30.8314 28.3989 30.8518C28.3928 30.8711 28.3886 30.8909 28.3836 30.9104C28.3781 30.9312 28.372 30.9515 28.3677 30.9726C28.3669 30.9765 28.3662 30.9806 28.3656 30.9843C28.1972 31.0086 28.0314 31.0411 27.8687 31.0817V27.6279C27.8687 21.1806 33.1141 15.9353 39.5614 15.9353H40.6411V15.9354H40.6413ZM21.5212 6.3648H22.5459C27.5864 6.3648 31.9809 9.76949 33.2325 14.6443C33.252 14.7201 33.2787 14.792 33.3105 14.8606C31.647 15.6784 30.1664 16.8118 28.9456 18.1825C27.4898 16.665 26.9827 14.549 26.9781 14.5286C26.8684 14.0445 26.4855 13.6695 25.9992 13.5701C25.5131 13.4709 25.0136 13.6651 24.7227 14.0673C20.7934 19.499 12.1852 19.5525 12.0591 19.5525H12.0589C12.057 19.5525 12.0553 19.5525 12.0533 19.5525C12.0486 19.5525 12.0441 19.5531 12.0394 19.5531C12.0347 19.5531 12.0302 19.5525 12.0255 19.5525C11.4283 19.5525 10.9291 19.9675 10.7973 20.5242C10.6933 20.5401 10.5905 20.5606 10.4887 20.5831V17.397C10.4886 11.314 15.4378 6.3648 21.5212 6.3648ZM9.21469 25.3156C9.21469 24.3073 9.86203 23.4495 10.7622 23.13V27.5011C9.86203 27.1817 9.21469 26.3239 9.21469 25.3156ZM13.2884 28.4875V22.0245C15.7734 21.8354 21.4177 20.9911 25.2997 17.2398C25.7539 18.1898 26.4364 19.299 27.4236 20.23C26.1042 22.3865 25.3427 24.9198 25.3427 27.6279V32.604C24.5389 33.4971 24.0489 34.6778 24.0489 35.9711C24.0489 36.0332 24.0514 36.0946 24.0536 36.1564C23.7012 36.2046 23.345 36.2321 22.9875 36.2321H21.0333C16.7628 36.2323 13.2884 32.7579 13.2884 28.4875ZM21.0333 38.7585H22.9875C23.5933 38.7585 24.1977 38.7054 24.7909 38.6004C24.9155 38.8031 25.0533 38.9964 25.2042 39.1786V39.4571C25.2042 39.4585 25.2042 39.4598 25.2042 39.4612V41.3618C25.2042 41.3757 25.2059 41.3893 25.2063 41.4032L22.062 44.4662L18.8162 41.097V38.5151C19.5308 38.6729 20.272 38.7585 21.0333 38.7585ZM16.3188 41.869C16.3661 42.0925 16.4731 42.3059 16.6433 42.4826L20.1631 46.1364L17.1859 48.3273L14.5969 43.0054L16.3188 41.869ZM2.52625 54.5796C2.52625 47.9459 7.76047 46.0523 7.97734 45.977C8.00547 45.9675 8.03344 45.9571 8.06094 45.9454L12.3486 44.159L15.5775 50.7961C15.7416 51.1332 16.0469 51.3801 16.4108 51.47C16.5108 51.4945 16.6122 51.5067 16.7131 51.5067C16.98 51.5067 17.2428 51.4221 17.4619 51.2607L18.2486 50.6817L18.7786 52.0932L17.3425 60.9954H9.89672V54.2303C9.89672 53.5326 9.33109 52.9671 8.63359 52.9671C7.93609 52.9671 7.37047 53.5328 7.37047 54.2303V60.9954H2.52625V54.5796ZM27.0427 73.6346V66.4384C27.0427 65.7406 26.477 65.1753 25.7795 65.1753C25.0819 65.1753 24.5164 65.7406 24.5164 66.4384V73.6346H19.2761V66.8064C19.2761 59.7656 24.835 57.7578 25.0661 57.6778C25.0942 57.6682 25.1222 57.6579 25.1497 57.6464L29.8111 55.7039L33.2584 62.7903C33.4225 63.1275 33.7278 63.3743 34.0917 63.4642C34.1917 63.4887 34.2931 63.5009 34.3941 63.5009C34.6608 63.5009 34.9238 63.4164 35.1428 63.255L36.095 62.5542L36.7866 64.2051L35.2652 73.6348H33.0208H27.0425V73.6346H27.0427ZM37.8245 73.6346L39.1672 65.3129H41.085L42.4275 73.6346H37.8245ZM41.2856 62.7865H38.9319L38.1891 61.0129L40.0506 59.6428L41.943 61.0354L41.2856 62.7865ZM45.2344 60.3214L44.2391 59.5887C44.2364 59.5865 44.2334 59.5846 44.2308 59.5826L41.9697 57.9184L45.7322 54.0128C45.9275 53.81 46.0402 53.5587 46.0738 53.2995L48.0244 54.5867L45.2344 60.3214ZM56.7323 55.7192L57.1345 53.2264H58.8448L59.5716 57.732C59.5572 57.7184 59.543 57.7042 59.5286 57.6907C58.498 56.7173 57.4614 56.0896 56.7323 55.7192ZM77.4737 60.9954H72.6292V54.2303C72.6292 53.5326 72.0639 52.9671 71.3661 52.9671C70.6684 52.9671 70.103 53.5328 70.103 54.2303V60.9954H62.657L61.2209 52.0932L61.7509 50.6817L62.5377 51.2607C62.7567 51.4221 63.0195 51.5067 63.2863 51.5067C63.3873 51.5067 63.4887 51.4945 63.5887 51.47C63.9527 51.3801 64.2583 51.1332 64.422 50.7961L67.6509 44.159L71.9386 45.9454C71.9661 45.9568 71.9941 45.9673 72.0222 45.977C72.0766 45.9951 77.4733 47.8859 77.4733 54.5796V60.9954H77.4737Z" fill="#434242"/>
<path d="M26.9774 48.3277L29.2555 43.6448C29.094 43.2795 28.9502 42.9048 28.8296 42.5191L27.7202 41.7871C27.7654 42.1641 27.6421 42.5574 27.3488 42.843L23.9819 46.1229L26.9774 48.3277Z" fill="#EEF0F8"/>
<path d="M38.1532 57.9034L34.5483 54.392C34.2154 54.0677 34.1008 53.6045 34.2047 53.1836L32.0774 54.5873L34.8672 60.322L38.1532 57.9034Z" fill="#EEF0F8"/>
<path d="M65.4033 43.0055L63.6814 41.8691C63.6341 42.0924 63.5268 42.3062 63.3568 42.4827L59.8369 46.1365L62.8143 48.3274L65.4033 43.0055Z" fill="#EEF0F8"/>
<path d="M48.0244 54.587L46.0738 53.2998C46.0402 53.559 45.9275 53.8103 45.7322 54.0131L41.9697 57.9187L44.2308 59.5829C44.2336 59.5851 44.2366 59.5871 44.2393 59.5892L45.2346 60.3218L48.0244 54.587Z" fill="#EEF0F8"/>
<path d="M54.1367 50.644L53.2987 51.2606C53.0797 51.422 52.8169 51.5065 52.5501 51.5065C52.449 51.5065 52.3476 51.4943 52.2476 51.4698C51.8837 51.38 51.5781 51.1331 51.4144 50.7959L49.2611 46.3701C48.3726 47.3893 47.2962 48.2395 46.0854 48.8668V50.2809C46.0869 50.2817 46.0881 50.2825 46.0894 50.2832L50.1004 52.93L54.3383 54.696L54.754 52.1184L54.1367 50.644Z" fill="#EEF0F8"/>
<path d="M53.932 51.4693C54.032 51.4939 54.1334 51.5061 54.2345 51.5061C54.3194 51.5061 54.4033 51.4945 54.4861 51.4776L54.1367 50.6436L53.3979 51.1871C53.5494 51.3214 53.7311 51.4201 53.932 51.4693Z" fill="#BFC6D5"/>
<path d="M51.7849 52.93L47.7738 50.2832C47.7724 50.2825 47.7712 50.2817 47.7699 50.2809V48.8668C48.5027 48.487 49.1852 48.0245 49.8079 47.4936L49.2613 46.3701C48.3729 47.3893 47.2965 48.2395 46.0857 48.8668V50.2809C46.0871 50.2817 46.0883 50.2825 46.0896 50.2832L50.1007 52.93L54.3385 54.6961L54.4446 54.0384L51.7849 52.93Z" fill="#BFC6D5"/>
<path d="M34.1662 48.8666C32.882 48.2011 31.7473 47.2862 30.8294 46.1836L28.5856 50.7958C28.4215 51.133 28.1162 51.3798 27.7523 51.4697C27.6525 51.4942 27.5509 51.5064 27.45 51.5064C27.1831 51.5064 26.9203 51.4219 26.7012 51.2605L25.8633 50.6439L25.2456 52.1181L25.6615 54.6959L29.9536 52.9073C30.0075 52.8848 30.062 52.868 30.117 52.8533L34.1662 50.1814V48.8666Z" fill="#EEF0F8"/>
<path d="M52.651 42.8431C52.3579 42.5576 52.2343 42.1643 52.2796 41.7871L51.481 42.3141C51.3204 42.8663 51.118 43.401 50.8748 43.9127L53.0226 48.3274L56.0179 46.1229L52.651 42.8431Z" fill="#EEF0F8"/>
<path d="M20.1635 46.1365L16.6435 42.4827C16.4733 42.306 16.3663 42.0927 16.319 41.8691L14.5969 43.0055L17.1863 48.3274L20.1635 46.1365Z" fill="#EEF0F8"/>
<path d="M7.37078 54.2304C7.37078 53.5326 7.9364 52.9673 8.6339 52.9673C9.3314 52.9673 9.89703 53.5326 9.89703 54.2304V60.9956H17.3428L18.7789 52.0936L18.2489 50.682L17.4622 51.2611C17.2431 51.4225 16.9803 51.507 16.7134 51.507C16.6125 51.507 16.5109 51.4948 16.4111 51.4703C16.0472 51.3806 15.7417 51.1336 15.5778 50.7964L12.3487 44.1592L8.06093 45.9456C8.03343 45.957 8.00546 45.9675 7.97734 45.977C7.76046 46.0526 2.52625 47.9462 2.52625 54.5798V60.9956H7.37078V54.2304Z" fill="#EEF0F8"/>
<path d="M36.7868 64.2053L36.0954 62.5544L35.1432 63.2552C34.9241 63.4166 34.6611 63.5011 34.3944 63.5011C34.2935 63.5011 34.1919 63.4889 34.0921 63.4644C33.728 63.3746 33.4225 63.1277 33.2588 62.7905L29.8115 55.7041L25.695 57.4194C25.5057 57.6639 25.2279 57.841 24.8985 57.8941C24.778 57.9133 24.6593 57.9139 24.5441 57.9C23.1149 58.581 19.2766 60.9544 19.2766 66.8066V73.6349H24.5169V66.4385C24.5169 65.7407 25.0825 65.1754 25.78 65.1754C26.4777 65.1754 27.0432 65.7407 27.0432 66.4385V73.6349H33.0215H35.2655L36.7868 64.2053Z" fill="#EEF0F8"/>
<path d="M17.9267 51.4698C18.0267 51.4943 18.1281 51.5065 18.2291 51.5065C18.3352 51.5065 18.44 51.4893 18.5422 51.463L18.2487 50.6816L17.4727 51.2529C17.6069 51.3535 17.7602 51.4287 17.9267 51.4698Z" fill="#BFC6D5"/>
<path d="M9.49328 45.977C9.5214 45.9675 9.54937 45.9571 9.57687 45.9456L12.6042 44.6843L12.3487 44.1592L8.06093 45.9456C8.03343 45.957 8.00546 45.9675 7.97734 45.977C7.76046 46.0525 2.52625 47.9461 2.52625 54.5796V60.9954H4.04203V54.5796C4.04203 47.9461 9.27625 46.0525 9.49328 45.977Z" fill="#BFC6D5"/>
<path d="M10.1497 52.9668C9.86485 52.9668 9.60297 53.0621 9.39172 53.2212C9.69813 53.4518 9.89704 53.8173 9.89704 54.2301V60.9952H11.4128V54.2301C11.4128 53.5323 10.8473 52.9668 10.1497 52.9668Z" fill="#BFC6D5"/>
<path d="M35.6075 63.4637C35.7075 63.4882 35.8089 63.5004 35.9099 63.5004C36.0936 63.5004 36.2744 63.4576 36.4413 63.38L36.0952 62.5537L35.1533 63.2468C35.2875 63.3473 35.441 63.4226 35.6075 63.4637Z" fill="#BFC6D5"/>
<path d="M26.0596 57.9C26.1748 57.9139 26.2936 57.9133 26.414 57.8941C26.7434 57.841 27.0215 57.6641 27.2106 57.4194L30.0667 56.2293L29.8112 55.7041L25.6948 57.4194C25.5054 57.6639 25.2276 57.841 24.8982 57.8941C24.7778 57.9133 24.659 57.9139 24.5439 57.9C23.1146 58.581 19.2764 60.9544 19.2764 66.8066V73.6349H20.7921V66.8066C20.792 60.9544 24.6301 58.581 26.0596 57.9Z" fill="#BFC6D5"/>
<path d="M27.2953 65.1748C27.0105 65.1748 26.7486 65.2701 26.5374 65.4292C26.8438 65.6598 27.0427 66.0253 27.0427 66.4381V73.6345H28.5584V66.4381C28.5584 65.7403 27.993 65.1748 27.2953 65.1748Z" fill="#BFC6D5"/>
<path d="M72.0224 45.977C71.9943 45.9675 71.9663 45.9571 71.9388 45.9456L67.6512 44.1592L64.4223 50.7962C64.2582 51.1334 63.9529 51.3803 63.589 51.4701C63.489 51.4946 63.3876 51.5068 63.2865 51.5068C63.0198 51.5068 62.7568 51.4223 62.5379 51.2609L61.751 50.6818L61.2212 52.0934L62.6571 60.9954H70.1031V54.2303C70.1031 53.5325 70.6684 52.9671 71.3662 52.9671C72.064 52.9671 72.6293 53.5325 72.6293 54.2303V60.9954H77.4735V54.5796C77.4737 47.8859 72.077 45.9953 72.0224 45.977Z" fill="#EEF0F8"/>
</svg>
