<svg width="1355" height="264" viewBox="0 0 1355 264" fill="none" xmlns="http://www.w3.org/2000/svg">
<path d="M-43 263.5C-33.5 239.833 -12.5 198.3 35.5 185.5C105.5 166.833 124 233.603 93.5 252C67.4534 267.711 22 251.5 26.5 202C29.3522 170.625 80.5 106 188.5 105M500 120.5C530 126.5 558.5 139 584.5 159.5M648 208.5C680.167 226.333 756.3 263.3 835.5 248.5C934.5 230 924 178 915.5 163C907 148 882.5 145.5 873.5 166C867.565 179.519 873.5 222.5 925.5 224C967.1 225.2 996.833 210.833 1006.5 203.5M1307.5 93.5C1325.33 83.8333 1359.5 51.8 1353.5 1" stroke="#FECC00" stroke-dasharray="4 4"/>
</svg>
