<svg width="14" height="14" viewBox="0 0 14 14" fill="none" xmlns="http://www.w3.org/2000/svg">
<path d="M11.9 1.4005H11.2V0.700494C11.2 0.313892 10.8866 0.000488281 10.5 0.000488281C10.1134 0.000488281 9.79996 0.313891 9.79996 0.700493V1.4005H4.19996V0.700494C4.19996 0.313892 3.88656 0.000488281 3.49995 0.000488281C3.11335 0.000488281 2.79995 0.313891 2.79995 0.700493V1.4005H2.09996C1.32647 1.4005 0.706973 2.02699 0.706973 2.80051L0.699951 12.6005C0.699951 13.374 1.32644 14.0005 2.09996 14.0005H11.9C12.6735 14.0005 13.3 13.374 13.3 12.6005V2.80048C13.2999 2.02699 12.6735 1.4005 11.9 1.4005ZM11.9 12.6005H2.09996V4.90047H11.9V12.6005Z" fill="#434242"/>
</svg>
