<svg width="54" height="54" viewBox="0 0 54 54" fill="none" xmlns="http://www.w3.org/2000/svg">
<path d="M52.6098 9.50244H1.39016C0.621459 9.50244 0 10.1249 0 10.8926V43.1081C0 43.8758 0.621459 44.4982 1.39016 44.4982H52.6098C53.3785 44.4982 54 43.8758 54 43.1081V10.8926C54 10.1249 53.3785 9.50244 52.6098 9.50244ZM4.18098 20.0778H9.9443C10.7216 20.1074 11.3478 20.355 11.5639 21.1859L12.8174 27.214C11.5859 24.0608 8.6182 21.4373 4.13318 20.3512L4.18098 20.0778ZM11.1547 33.8263L7.8256 22.4527C10.2187 23.9843 12.2571 26.4147 12.9751 28.1061L13.3633 29.5105L17.0041 20.2087H20.9432L15.089 33.8235L11.1547 33.8263ZM23.8382 33.8359H20.1209L22.4452 20.1944H26.1644L23.8382 33.8359ZM30.3071 34.0405C28.6407 34.0233 27.0354 33.6934 26.1653 33.312L26.6883 30.2592L27.1673 30.4762C28.3882 30.9858 29.1789 31.1923 30.6676 31.1923C31.7355 31.1923 32.88 30.7745 32.8905 29.8605C32.8972 29.2629 32.4115 28.8365 30.964 28.1672C29.5528 27.5152 27.6846 26.4214 27.7075 24.4624C27.7276 21.8112 30.3167 19.9611 33.9909 19.9611C35.4308 19.9611 36.5848 20.2575 37.321 20.5338L36.819 23.491L36.4835 23.3333C35.7989 23.0579 34.9183 22.7921 33.7012 22.8112C32.2461 22.8112 31.5711 23.4174 31.5711 23.9843C31.5634 24.623 32.3589 25.0437 33.6592 25.6766C35.8037 26.6499 36.7952 27.8307 36.7818 29.3824C36.7531 32.2125 34.2166 34.0405 30.3071 34.0405ZM46.4172 33.8416C46.4172 33.8416 46.0778 32.2737 45.965 31.7975C45.4239 31.7975 41.6301 31.7918 41.2037 31.7918C41.0593 32.1599 40.4226 33.8416 40.4226 33.8416H36.5188L42.0384 21.3408C42.4304 20.4525 43.0948 20.2087 43.9859 20.2087H46.858L49.8668 33.8407L46.4172 33.8416Z" fill="#434242"/>
<path d="M44.4985 25.0637L44.248 23.8877C44.0587 24.4011 43.7327 25.2262 43.7537 25.1899C43.7537 25.1899 42.5787 28.2178 42.2727 29.0028H45.3599C45.2108 28.3192 44.4985 25.0637 44.4985 25.0637Z" fill="#434242"/>
</svg>
