<svg width="54" height="54" viewBox="0 0 54 54" fill="none" xmlns="http://www.w3.org/2000/svg">
<path d="M14.39 24.6787C13.3785 24.6787 12.6031 25.0038 12.6031 25.0038L12.3889 26.2754C12.3889 26.2754 13.0286 26.0153 13.9971 26.0153C14.5468 26.0153 14.9484 26.0765 14.9484 26.523C14.9484 26.7945 14.8996 26.8949 14.8996 26.8949C14.8996 26.8949 14.4665 26.8596 14.2657 26.8596C12.9894 26.8596 11.6489 27.4026 11.6489 29.0461C11.6489 30.3407 12.5276 30.6361 13.0735 30.6361C14.1147 30.6361 14.564 29.9611 14.587 29.9592L14.5382 30.5233H15.8376L16.4169 26.4599C16.416 24.7342 14.9121 24.6787 14.39 24.6787ZM13.6615 29.3999C13.2035 29.3999 13.084 29.0509 13.084 28.8425C13.084 28.439 13.303 27.9533 14.3843 27.9533C14.6367 27.9543 14.6635 27.9801 14.7055 27.9877C14.7342 28.2363 14.5507 29.3999 13.6615 29.3999Z" fill="#434242"/>
<path d="M19.0825 26.0409C19.29 26.0409 20.0903 26.1068 20.0903 26.1068L20.2767 24.8047C20.2767 24.8047 19.7585 24.689 18.9152 24.689C17.8234 24.689 16.7162 25.1249 16.7162 26.6155C16.7162 28.3059 18.5634 28.1338 18.5634 28.847C18.5634 29.3212 18.0471 29.3604 17.6494 29.3604C16.96 29.3604 16.3405 29.1252 16.3386 29.1348L16.1416 30.4265C16.177 30.436 16.5594 30.6062 17.7976 30.6062C18.1293 30.6062 20.0291 30.6923 20.0291 28.7313C20.0291 26.8975 18.2708 27.2599 18.2708 26.5227C18.2708 26.1556 18.5567 26.0409 19.0825 26.0409Z" fill="#434242"/>
<path d="M22.187 26.2072H22.9681L23.1565 24.819H22.4203L22.5704 23.9585H21.0951C21.0626 23.99 20.2241 28.8116 20.2241 29.3967C20.2241 30.2677 20.7127 30.654 21.4001 30.6473C21.9384 30.6435 22.3581 30.4943 22.5063 30.4532L22.6908 29.1988C22.5895 29.1988 22.4413 29.2428 22.3103 29.2428C21.7969 29.2428 21.7405 28.9684 21.773 28.7667L22.187 26.2072Z" fill="#434242"/>
<path d="M9.84095 23.5034L8.38674 27.8154L8.3112 23.5034H6.15809L4.97827 30.5297H6.40189L7.29966 25.233L7.4316 30.5297H8.44793L10.3439 25.233L9.50345 30.5297H11.0141L12.1776 23.5034H9.84095Z" fill="#434242"/>
<path d="M38.3097 24.6787C37.2962 24.6787 36.5218 25.0038 36.5218 25.0038L36.3067 26.2754C36.3067 26.2754 36.9472 26.0153 37.9148 26.0153C38.4646 26.0153 38.8671 26.0765 38.8671 26.523C38.8671 26.7945 38.8164 26.8949 38.8164 26.8949C38.8164 26.8949 38.3842 26.8596 38.1816 26.8596C36.9061 26.8596 35.5667 27.4026 35.5667 29.0461C35.5667 30.3407 36.4463 30.6361 36.9912 30.6361C38.0314 30.6361 38.4808 29.9611 38.5047 29.9592L38.456 30.5233H39.7543L40.3337 26.4599C40.3366 24.7342 38.8317 24.6787 38.3097 24.6787ZM37.583 29.3999C37.1241 29.3999 37.0056 29.0509 37.0056 28.8425C37.0056 28.439 37.2245 27.9533 38.3058 27.9533C38.5573 27.9543 38.5841 27.9801 38.6271 27.9877C38.6548 28.2363 38.4703 29.3999 37.583 29.3999Z" fill="#434242"/>
<path d="M48.9614 29.8824C48.9222 29.8097 48.8648 29.7543 48.7931 29.716C48.7223 29.6768 48.6497 29.6577 48.5732 29.6577C48.4996 29.6587 48.4259 29.6778 48.3533 29.716C48.2816 29.7543 48.2261 29.8097 48.186 29.8824C48.1458 29.9541 48.1257 30.0287 48.1257 30.1061C48.1257 30.1836 48.1458 30.2572 48.186 30.3279C48.2252 30.3987 48.2806 30.4551 48.3514 30.4952C48.4231 30.5344 48.4967 30.5545 48.5732 30.5545C48.6516 30.5545 48.7262 30.5344 48.796 30.4952C48.8667 30.4551 48.9222 30.3987 48.9614 30.3279C49.0025 30.2572 49.0206 30.1836 49.0206 30.1061C49.0206 30.0268 49.0015 29.9522 48.9614 29.8824ZM48.8992 30.2906C48.8667 30.3499 48.8208 30.3949 48.7606 30.4302C48.7013 30.4627 48.6401 30.48 48.5761 30.48C48.511 30.48 48.4489 30.4627 48.3906 30.4302C48.3303 30.3968 48.2854 30.3509 48.251 30.2906C48.2166 30.2304 48.2013 30.1692 48.2013 30.1052C48.2013 30.0411 48.2175 29.979 48.2529 29.9187C48.2864 29.8594 48.3313 29.8136 48.3925 29.7801C48.4537 29.7466 48.5139 29.7323 48.5761 29.7323C48.6382 29.7323 48.6994 29.7476 48.7577 29.7801C48.8189 29.8136 48.8638 29.8585 48.8973 29.9187C48.9308 29.979 48.9489 30.0411 48.9489 30.1052C48.9489 30.1692 48.9327 30.2314 48.8992 30.2906Z" fill="#434242"/>
<path d="M48.7252 30.2583C48.6975 30.2134 48.6726 30.1818 48.6545 30.1627C48.643 30.1522 48.6306 30.1436 48.6134 30.1378C48.6545 30.135 48.6879 30.1197 48.7128 30.0938C48.7367 30.069 48.751 30.0365 48.751 30.0021C48.751 29.9782 48.7434 29.9533 48.7281 29.9313C48.7128 29.9103 48.6927 29.894 48.6688 29.8845C48.6449 29.8749 48.6029 29.8701 48.5464 29.8701H48.3782V30.352H48.4566V30.1474H48.5015C48.5292 30.1474 48.5512 30.1531 48.5646 30.1636C48.5847 30.1808 48.6115 30.2172 48.6468 30.2774L48.6879 30.3529H48.7845L48.7252 30.2583ZM48.5531 30.0814H48.4585V29.9351H48.5464C48.5847 29.9351 48.6095 29.938 48.6248 29.9428C48.6373 29.9495 48.6487 29.9562 48.6564 29.9686C48.665 29.981 48.6688 29.9915 48.6688 30.0078C48.6688 30.0288 48.6602 30.047 48.6459 30.0604C48.6277 30.0766 48.5981 30.0814 48.5531 30.0814Z" fill="#434242"/>
<path d="M43.3233 24.7485C42.6627 24.7485 42.1722 25.6501 42.1722 25.6501L42.3041 24.8212H40.9293L40.0085 30.5405H41.523C41.9542 28.0968 42.0326 26.1148 43.0566 26.4771C43.2373 25.5325 43.4113 25.1663 43.6073 24.7677C43.6073 24.7686 43.5155 24.7485 43.3233 24.7485Z" fill="#434242"/>
<path d="M47.1286 23.5112L46.8102 25.4855C46.8102 25.4855 46.2557 24.7178 45.3856 24.7178C44.0328 24.7187 42.9065 26.3488 42.9065 28.2209C42.9065 29.4303 43.5079 30.6149 44.7355 30.6149C45.6199 30.6149 46.1094 29.9982 46.1094 29.9982L46.0453 30.525H47.4804L48.6086 23.5083L47.1286 23.5112ZM45.2575 29.1808C44.7259 29.1808 44.4774 28.7352 44.4774 28.0354C44.4774 26.8909 44.9908 26.1366 45.64 26.1366C46.1696 26.1375 46.4421 26.5018 46.4421 27.3604C46.4421 28.1396 46.0568 29.1808 45.2575 29.1808Z" fill="#434242"/>
<path d="M52.6098 9.50244H1.39016C0.621459 9.50244 0 10.1249 0 10.8926V43.1081C0 43.8758 0.621459 44.4982 1.39016 44.4982H52.6098C53.3785 44.4982 54 43.8758 54 43.1081V10.8926C54 10.1249 53.3785 9.50244 52.6098 9.50244ZM50.1536 27.0008C50.1556 34.6543 43.9544 40.8613 36.2999 40.8632C32.7203 40.8641 29.4562 39.5074 26.9971 37.2788C24.5381 39.5036 21.2807 40.8594 17.7068 40.8594C10.0571 40.8594 3.84827 34.6515 3.84827 27.0008C3.84827 19.3808 10.0084 13.191 17.6179 13.1413C17.6475 13.1413 17.6772 13.1413 17.7068 13.1413C21.2807 13.1413 24.539 14.4971 26.9981 16.7219C29.4562 14.4961 32.7165 13.1394 36.2932 13.1385C43.9477 13.1356 50.1536 19.3397 50.1556 26.9941C50.1536 26.996 50.1536 26.997 50.1536 27.0008Z" fill="#434242"/>
<path d="M27.4656 28.1569C27.4656 28.1569 27.6597 27.2008 27.6597 26.8117C27.6597 25.8394 27.1759 24.6538 25.5563 24.6538C24.0724 24.6548 22.9739 26.2534 22.9739 28.0604C22.9739 30.1456 24.3497 30.6409 25.5228 30.6409C26.6051 30.6409 27.0812 30.398 27.0812 30.398L27.3413 28.9753C27.3413 28.9753 26.5181 29.3387 25.7743 29.3387C24.19 29.3387 24.4673 28.1569 24.4673 28.1569H27.4656ZM25.5611 25.978C26.3938 25.978 26.2399 26.914 26.2399 26.9886H24.6021C24.6021 26.892 24.757 25.978 25.5611 25.978Z" fill="#434242"/>
<path d="M34.3859 24.8497C35.1364 24.8497 35.7397 25.2713 35.7397 25.2713L35.9806 23.7081C35.9806 23.7081 35.0876 23.3467 34.3189 23.3467C32.6161 23.3467 30.9592 24.8248 30.9592 27.6003C30.9592 29.4408 31.8532 30.656 33.6143 30.656C34.1115 30.656 34.905 30.4543 34.905 30.4543L35.1689 28.8442C35.1689 28.8442 34.4461 29.2066 33.9489 29.2066C32.901 29.2056 32.4813 28.4063 32.4813 27.5497C32.4813 25.8067 33.382 24.8497 34.3859 24.8497Z" fill="#434242"/>
<path d="M30.9325 24.7501C30.2718 24.7501 29.7823 25.6517 29.7823 25.6517L29.9152 24.8228H28.5413L27.6206 30.5421H29.1351C29.5643 28.0993 29.6446 26.1164 30.6686 26.4787C30.8484 25.5332 31.0214 25.167 31.2174 24.7673C31.2174 24.7673 31.1256 24.7482 30.9325 24.7501Z" fill="#434242"/>
</svg>
