<svg width="54" height="36" viewBox="0 0 54 36" fill="none" xmlns="http://www.w3.org/2000/svg">
<path d="M13.5887 14.7693C13.3697 14.6259 13.0437 14.5532 12.6154 14.5532L12.2492 14.5551C12.0092 14.5532 11.7635 14.7464 11.7166 14.9796L11.3791 16.4329C11.3266 16.6681 11.4767 16.8603 11.7195 16.8603H11.9929C12.6001 16.8603 13.0705 16.7369 13.408 16.4884C13.7455 16.2417 13.9185 15.8908 13.9109 15.4367C13.9128 15.1364 13.8047 14.9118 13.5887 14.7693Z" fill="#434242"/>
<path d="M19.5644 18.1187C19.4984 18.1206 18.9927 18.1779 18.7364 18.2095C18.4496 18.2506 18.201 18.308 17.9993 18.3758L17.5251 18.699C17.4142 18.8386 17.3616 19.0164 17.3616 19.2449L17.5776 19.6637C17.7239 19.7459 17.94 19.7861 18.2154 19.7861C18.397 19.7861 18.594 19.7421 18.8005 19.658L19.2403 19.4314L19.4143 19.2C19.4831 18.9304 19.6256 18.3309 19.6418 18.2563L19.5644 18.1187Z" fill="#434242"/>
<path d="M52.6098 1H1.39016C0.621459 1 0 1.62241 0 2.39016V34.6047C0 35.3724 0.621459 35.9958 1.39016 35.9958H52.6098C53.3785 35.9958 54 35.3734 54 34.6056V2.39016C54 1.62241 53.3785 1 52.6098 1ZM14.8919 17.9763C14.1309 18.5366 13.0715 18.8158 11.7024 18.8177H11.3831C11.1374 18.8177 10.8974 19.0108 10.8467 19.2422L10.4624 20.9039C10.4079 21.141 10.1679 21.3303 9.92504 21.3303H8.80641C8.56356 21.3303 8.41154 21.1353 8.46891 20.9039L10.0417 14.0554C10.099 13.8202 10.3371 13.6319 10.58 13.628L12.9166 13.6271C13.4215 13.6319 13.8584 13.6625 14.237 13.7313C14.6099 13.8021 14.9349 13.9206 15.2103 14.0889C15.4742 14.2552 15.6874 14.478 15.8212 14.7476C15.9704 15.0172 16.0364 15.3547 16.0364 15.7563C16.0364 16.6741 15.6587 17.4161 14.8919 17.9763ZM21.8351 17.1025L21.793 17.3903L20.9765 20.9201C20.9287 21.1324 20.7183 21.3131 20.4956 21.3389L20.4803 21.3447H20.3187H19.4601H19.4401L19.4362 21.3408C19.223 21.3208 19.0911 21.14 19.137 20.9221V20.9201L19.1389 20.9135L19.1809 20.7337L19.1752 20.727L18.7536 21.0052L18.2947 21.2615L17.7535 21.447C17.5871 21.4871 17.3529 21.511 17.0508 21.511C16.5737 21.511 16.174 21.38 15.8719 21.1095C15.5717 20.8331 15.4168 20.4803 15.4168 20.0482C15.4168 19.5893 15.5229 19.2011 15.7362 18.8779C15.957 18.5567 16.2725 18.3062 16.6989 18.1188C17.0957 17.9381 17.5728 17.8043 18.1178 17.7287C18.6742 17.6484 19.1331 17.5901 19.7689 17.5499L19.9296 17.4505L19.9496 17.2927C19.9496 17.0499 19.8368 16.8826 19.6121 16.7841C19.3846 16.6885 19.0423 16.6407 18.5949 16.6407C18.2908 16.6369 17.9084 16.699 17.546 16.7812C17.1665 16.8673 17.0623 16.9237 16.8768 16.9791C16.7907 17.0088 16.5833 17.0231 16.6607 16.6636L16.7974 16.1005C16.7974 16.1005 16.8643 15.675 17.2898 15.5823C17.4954 15.5364 17.5279 15.5278 17.8635 15.4762C18.3176 15.4064 18.767 15.371 19.2173 15.371C20.1284 15.371 20.7958 15.4896 21.2174 15.7276C21.641 15.9647 21.857 16.3357 21.8551 16.8338L21.8351 17.1025ZM23.6335 24.0571L22.4747 24.059C22.2337 24.059 22.1544 23.8678 22.3016 23.6326L23.2931 21.904C23.2931 21.904 23.3725 21.8055 23.3017 21.2414C23.1487 20.2222 22.3877 15.8892 22.3877 15.8892C22.3322 15.655 22.4814 15.4628 22.7223 15.4628L23.7252 15.4609C24.0322 15.4609 24.2788 15.6626 24.3343 15.8997L24.8334 18.9047L25.0188 18.9066C25.1747 18.6303 26.7771 15.8806 26.7771 15.8806C26.9301 15.6492 27.2398 15.4532 27.4808 15.4532C27.4808 15.4532 28.5583 15.4561 28.8231 15.4532C29.2209 15.4475 28.7925 16.0919 28.7925 16.0919L24.3333 23.6326C24.1899 23.8678 23.8725 24.0571 23.6335 24.0571ZM35.2184 18.006C34.4545 18.5634 33.3904 18.8454 32.0212 18.8454H31.7019C31.461 18.8416 31.22 19.0376 31.1646 19.269L30.786 20.9335C30.7305 21.1659 30.4858 21.3571 30.2487 21.3542L29.1272 21.3571C28.8891 21.358 28.7323 21.1649 28.7897 20.9326L30.3634 14.0803C30.4208 13.8479 30.6559 13.6586 30.8988 13.6548L33.2383 13.6529C33.7403 13.6548 34.182 13.6902 34.553 13.7562C34.9306 13.825 35.2557 13.9436 35.5272 14.1128C35.794 14.2839 36.0034 14.5029 36.143 14.7744C36.2864 15.0421 36.3562 15.3806 36.3581 15.7821C36.3581 16.699 35.9747 17.439 35.2184 18.006ZM42.1577 17.1073L42.1166 17.397L41.2982 20.924C41.2523 21.1372 41.041 21.3179 40.8211 21.3447L40.8058 21.3504H40.6452C40.4138 21.3504 39.9262 21.3504 39.7857 21.3504H39.7656L39.7637 21.3447C39.5466 21.3246 39.4128 21.1448 39.4654 20.9259L39.4635 20.923L39.4682 20.9192L39.5055 20.7394L39.4988 20.7308L39.0801 21.0129L38.6183 21.2682L38.0781 21.4508C37.9117 21.4938 37.6765 21.512 37.3773 21.5168C36.8992 21.5168 36.5034 21.381 36.1994 21.1123C35.8972 20.8389 35.7414 20.4842 35.7414 20.0501C35.7414 19.5941 35.8475 19.204 36.0617 18.8827C36.2806 18.5615 36.6009 18.3119 37.0235 18.1226C37.4232 17.941 37.9031 17.809 38.4452 17.7325C38.9978 17.6522 39.4568 17.5939 40.0973 17.5547L40.258 17.4534L40.2752 17.2956C40.2752 17.0547 40.1643 16.8854 39.9367 16.7879C39.7092 16.6914 39.3669 16.6436 38.9214 16.6436C38.6154 16.6416 38.232 16.7028 37.8706 16.7841C37.493 16.8721 37.3907 16.9266 37.2061 16.982C37.1124 17.0097 36.9107 17.026 36.9872 16.6665L37.1239 16.1043C37.1239 16.1043 37.188 15.6779 37.6153 15.5861C37.8228 15.5412 37.8563 15.5307 38.1909 15.4819C38.6422 15.4092 39.0944 15.3739 39.5447 15.3739C40.4521 15.3739 41.1185 15.4943 41.5439 15.7324C41.9703 15.9695 42.1835 16.3386 42.1835 16.8367L42.1577 17.1073ZM45.7431 14.1367L44.2439 20.9259L44.1913 21.0062C44.1024 21.1974 43.9131 21.3523 43.7075 21.3523H42.6673L42.6482 21.3284C42.4503 21.2978 42.3212 21.1381 42.3681 20.9297L42.3661 20.9249L42.4111 20.7289L43.8127 14.3595L43.8624 14.1376L43.9188 14.0506C44.0097 13.8632 44.1952 13.7112 44.4007 13.7112H45.4017C45.6455 13.7112 45.7918 13.9015 45.7402 14.1348L45.7431 14.1367Z" fill="#434242"/>
<path d="M39.888 18.1245C39.822 18.1236 39.3181 18.1828 39.0657 18.2154C38.776 18.2565 38.5284 18.3129 38.3286 18.3817C38.124 18.462 37.9576 18.5701 37.8496 18.7049C37.7425 18.8445 37.689 19.0223 37.689 19.2518L37.9079 19.6696C38.0475 19.7527 38.2607 19.7929 38.5447 19.7929C38.7235 19.7929 38.9204 19.7489 39.126 19.6657L39.5629 19.4391L39.7427 19.2078C39.8096 18.9353 39.9549 18.3377 39.9664 18.2632L39.888 18.1245Z" fill="#434242"/>
<path d="M33.9067 14.7952C33.6858 14.6508 33.3646 14.58 32.9353 14.5781L32.571 14.58C32.3301 14.5781 32.0853 14.7732 32.0356 15.0055L31.6972 16.4578C31.6427 16.6911 31.7985 16.8861 32.0404 16.8842H32.3186C32.9238 16.8842 33.3933 16.7599 33.7317 16.5171C34.0664 16.2675 34.2365 15.9195 34.2346 15.4616C34.2289 15.1633 34.1247 14.9386 33.9067 14.7952Z" fill="#434242"/>
</svg>
