<svg width="16" height="16" viewBox="0 0 16 16" fill="none" xmlns="http://www.w3.org/2000/svg">
<path d="M11.5844 0H4.4153C1.98071 0 0 1.9808 0 4.4154V11.5845C0 14.0192 1.98071 15.9999 4.4153 15.9999H11.5844C14.0192 15.9999 15.9999 14.0191 15.9999 11.5845V4.4154C16 1.9808 14.0192 0 11.5844 0ZM14.5804 11.5845C14.5804 13.2364 13.2364 14.5803 11.5845 14.5803H4.4153C2.76347 14.5804 1.41959 13.2364 1.41959 11.5845V4.4154C1.41959 2.76356 2.76347 1.41959 4.4153 1.41959H11.5844C13.2363 1.41959 14.5803 2.76356 14.5803 4.4154V11.5845H14.5804Z" fill="#434242"/>
<path d="M7.99997 3.8772C5.72664 3.8772 3.8772 5.72664 3.8772 7.99997C3.8772 10.2732 5.72664 12.1225 7.99997 12.1225C10.2733 12.1225 12.1227 10.2732 12.1227 7.99997C12.1227 5.72664 10.2733 3.8772 7.99997 3.8772ZM7.99997 10.7029C6.50949 10.7029 5.29679 9.49035 5.29679 7.99987C5.29679 6.5093 6.5094 5.29669 7.99997 5.29669C9.49054 5.29669 10.7031 6.5093 10.7031 7.99987C10.7031 9.49035 9.49044 10.7029 7.99997 10.7029Z" fill="#434242"/>
<path d="M12.2957 2.67358C12.0222 2.67358 11.7535 2.78431 11.5603 2.97832C11.3662 3.17139 11.2546 3.44016 11.2546 3.71462C11.2546 3.98822 11.3663 4.2569 11.5603 4.45091C11.7534 4.64397 12.0222 4.75565 12.2957 4.75565C12.5701 4.75565 12.8379 4.64397 13.032 4.45091C13.226 4.2569 13.3367 3.98812 13.3367 3.71462C13.3367 3.44016 13.226 3.17139 13.032 2.97832C12.8389 2.78431 12.5701 2.67358 12.2957 2.67358Z" fill="#434242"/>
</svg>
