<svg width="91" height="50" viewBox="0 0 91 50" fill="none" xmlns="http://www.w3.org/2000/svg">
<path fill-rule="evenodd" clip-rule="evenodd" d="M21.9523 19.6565L13.3126 0.446299C13.257 0.313205 13.1629 0.199695 13.0425 0.120221C12.9222 0.0407474 12.7808 -0.00109502 12.6366 2.17868e-05H5.85937C5.66568 0.0044243 5.48135 0.0842666 5.34561 0.222553C5.20988 0.360839 5.13347 0.546651 5.13264 0.740438V2.81968C5.13353 3.01578 5.2118 3.20359 5.35044 3.34225C5.48907 3.48092 5.67684 3.55921 5.87289 3.5601H6.14669C6.26957 3.5604 6.39045 3.5913 6.49841 3.65C6.60637 3.70871 6.69803 3.79337 6.7651 3.89636C6.83218 3.99934 6.87257 4.11741 6.88263 4.23991C6.89269 4.3624 6.8721 4.48548 6.82272 4.59803L0.0623931 19.6565C0.0130144 19.7691 -0.00757436 19.8921 0.00248422 20.0146C0.0125428 20.1371 0.0529325 20.2552 0.120009 20.3582C0.187086 20.4612 0.27874 20.5458 0.386703 20.6045C0.494666 20.6633 0.615542 20.6941 0.738426 20.6945H3.37157C3.51045 20.6926 3.64631 20.6537 3.76514 20.5817C3.88398 20.5098 3.98148 20.4075 4.04761 20.2854L5.41995 17.2426C5.47638 17.11 5.57057 16.997 5.6908 16.9176C5.81102 16.8383 5.95194 16.7961 6.09598 16.7963H15.9492C16.0932 16.7961 16.2341 16.8383 16.3544 16.9176C16.4746 16.997 16.5688 17.11 16.6252 17.2426L17.957 20.2448C18.0155 20.3758 18.1102 20.4874 18.23 20.5665C18.3497 20.6455 18.4895 20.6888 18.633 20.6911H21.3033C21.4235 20.6862 21.5406 20.6521 21.6446 20.5918C21.7486 20.5314 21.8364 20.4467 21.9003 20.3448C21.9642 20.2429 22.0023 20.127 22.0114 20.0071C22.0205 19.8872 22.0002 19.7668 21.9523 19.6565ZM14.2794 13.1652H7.75226C7.6895 13.1668 7.62729 13.153 7.57106 13.1251C7.51483 13.0971 7.46627 13.0559 7.42962 13.0049C7.39297 12.9539 7.36933 12.8947 7.36076 12.8325C7.35219 12.7703 7.35895 12.7069 7.38045 12.6479L10.6795 5.15588C10.7056 5.08734 10.7519 5.02835 10.8122 4.98673C10.8726 4.94511 10.9442 4.92282 11.0175 4.92282C11.0908 4.92282 11.1624 4.94511 11.2228 4.98673C11.2831 5.02835 11.3294 5.08734 11.3555 5.15588L14.5971 12.6479C14.6221 12.7025 14.6334 12.7624 14.6298 12.8223C14.6261 12.8822 14.6078 12.9403 14.5764 12.9915C14.545 13.0426 14.5014 13.0852 14.4496 13.1155C14.3978 13.1458 14.3393 13.1629 14.2794 13.1652Z" fill="#140000"/>
<path fill-rule="evenodd" clip-rule="evenodd" d="M24.437 4.21597V19.9506C24.4379 20.1476 24.5165 20.3363 24.6558 20.4756C24.795 20.6149 24.9837 20.6935 25.1806 20.6944H38.2314C38.4281 20.6935 38.6163 20.6148 38.7551 20.4754C38.8938 20.336 38.9717 20.1473 38.9717 19.9506V17.8376C38.9708 17.6415 38.8925 17.4537 38.7539 17.315C38.6152 17.1763 38.4275 17.098 38.2314 17.0972H29.0712C28.8745 17.0963 28.6863 17.0175 28.5475 16.8781C28.4088 16.7387 28.3309 16.55 28.3309 16.3534V0.740416C28.33 0.544319 28.2518 0.356508 28.1131 0.217846C27.9745 0.0791833 27.7867 0.000889339 27.5907 0H22.9903C22.7942 0.000889339 22.6064 0.0791833 22.4678 0.217846C22.3292 0.356508 22.2509 0.544319 22.25 0.740416V2.76895C22.2464 2.86859 22.2628 2.96795 22.2984 3.06111C22.3339 3.15427 22.3878 3.23934 22.4568 3.31125C22.5259 3.38316 22.6087 3.44045 22.7003 3.47971C22.792 3.51897 22.8906 3.5394 22.9903 3.53979H23.6967C23.8842 3.53243 24.0671 3.59928 24.2057 3.72585C24.3442 3.85242 24.4273 4.02852 24.437 4.21597Z" fill="#140000"/>
<path fill-rule="evenodd" clip-rule="evenodd" d="M42.6693 4.21597V19.9506C42.6693 20.1473 42.7471 20.336 42.8859 20.4754C43.0246 20.6148 43.2129 20.6935 43.4095 20.6944H45.8568C46.0534 20.6935 46.2417 20.6148 46.3804 20.4754C46.5191 20.336 46.597 20.1473 46.597 19.9506V4.21597C46.5969 4.12455 46.6154 4.03407 46.6512 3.94998C46.6871 3.8659 46.7396 3.78995 46.8056 3.72675C46.8717 3.66355 46.9498 3.61439 47.0354 3.58226C47.121 3.55012 47.2122 3.53568 47.3035 3.53979H48.8989C49.0864 3.53243 49.2693 3.59928 49.4078 3.72585C49.5464 3.85242 49.6295 4.02852 49.6392 4.21597V4.92258C49.64 5.11867 49.7183 5.30648 49.857 5.44515C49.9956 5.58381 50.1834 5.6621 50.3794 5.66299H52.4075C52.5036 5.66486 52.599 5.6472 52.6881 5.61107C52.7772 5.57495 52.8579 5.52111 52.9256 5.45283C52.9932 5.38455 53.0463 5.30325 53.0816 5.21384C53.1169 5.12444 53.1336 5.0288 53.1309 4.93272V0.740416C53.1345 0.645332 53.119 0.550484 53.0855 0.461458C53.0519 0.372433 53.0008 0.291027 52.9353 0.222033C52.8698 0.15304 52.7911 0.0978527 52.704 0.0597212C52.6168 0.0215896 52.5229 0.00128414 52.4278 0H36.8452C36.6492 0.000889339 36.4614 0.0791833 36.3228 0.217846C36.1841 0.356508 36.1059 0.544319 36.105 0.740416V4.93272C36.1059 5.12881 36.1841 5.31663 36.3228 5.45529C36.4614 5.59395 36.6492 5.67224 36.8452 5.67313H38.8733C39.0694 5.67224 39.2572 5.59395 39.3958 5.45529C39.5344 5.31663 39.6127 5.12881 39.6136 4.93272V4.21597C39.6183 4.12195 39.6416 4.02979 39.6822 3.94482C39.7227 3.85985 39.7796 3.78374 39.8497 3.72088C39.9198 3.65802 40.0016 3.60966 40.0904 3.57858C40.1793 3.5475 40.2734 3.53432 40.3674 3.53979H41.9763C42.0665 3.53754 42.1562 3.55336 42.2402 3.58633C42.3242 3.6193 42.4007 3.66875 42.4653 3.73176C42.5299 3.79478 42.5812 3.87008 42.6162 3.95324C42.6513 4.0364 42.6693 4.12573 42.6693 4.21597Z" fill="#140000"/>
<path fill-rule="evenodd" clip-rule="evenodd" d="M58.7993 4.59801L52.039 19.6565C51.9896 19.769 51.969 19.8921 51.979 20.0146C51.9891 20.1371 52.0295 20.2552 52.0966 20.3582C52.1637 20.4612 52.2553 20.5458 52.3633 20.6045C52.4712 20.6632 52.5921 20.6941 52.715 20.6944H55.3481C55.4869 20.6922 55.6227 20.6531 55.7414 20.5813C55.8602 20.5094 55.9578 20.4073 56.0242 20.2853L57.3762 17.2425C57.4327 17.11 57.5269 16.997 57.6471 16.9176C57.7673 16.8382 57.9082 16.796 58.0523 16.7963H67.9156C68.0597 16.7956 68.2009 16.8376 68.3212 16.917C68.4415 16.9965 68.5356 17.1097 68.5916 17.2425L69.9437 20.2448C70.0022 20.3758 70.0969 20.4874 70.2167 20.5665C70.3364 20.6455 70.4763 20.6887 70.6197 20.6911H73.2867C73.4096 20.6907 73.5304 20.6598 73.6384 20.6011C73.7464 20.5424 73.838 20.4578 73.9051 20.3548C73.9722 20.2518 74.0126 20.1337 74.0226 20.0112C74.0327 19.8887 74.0121 19.7657 73.9627 19.6531L65.2993 0.446278C65.2429 0.313715 65.1487 0.200702 65.0285 0.121339C64.9083 0.0419758 64.7674 -0.000224957 64.6233 9.01869e-07H57.8359C57.6399 0.000890241 57.4521 0.0791842 57.3135 0.217847C57.1749 0.356509 57.0966 0.54432 57.0957 0.740417V2.81966C57.0966 3.01576 57.1749 3.20357 57.3135 3.34223C57.4521 3.4809 57.6399 3.55919 57.8359 3.56008H58.1334C58.2557 3.5612 58.3759 3.59278 58.483 3.65195C58.5901 3.71113 58.6807 3.79604 58.7468 3.89904C58.8129 4.00203 58.8523 4.11985 58.8614 4.24188C58.8706 4.36391 58.8492 4.4863 58.7993 4.59801ZM59.357 12.6479L62.6561 5.15586C62.6821 5.08732 62.7284 5.02833 62.7888 4.98671C62.8492 4.94509 62.9208 4.9228 62.9941 4.9228C63.0674 4.9228 63.139 4.94509 63.1993 4.98671C63.2597 5.02833 63.306 5.08732 63.3321 5.15586L66.594 12.6479C66.6197 12.704 66.6308 12.7657 66.6262 12.8273C66.6216 12.8888 66.6015 12.9482 66.5677 12.9999C66.5339 13.0515 66.4876 13.0938 66.4331 13.1227C66.3786 13.1516 66.3176 13.1662 66.2559 13.1652H59.7322C59.6692 13.1673 59.6066 13.154 59.5499 13.1263C59.4932 13.0986 59.4442 13.0574 59.4071 13.0063C59.3701 12.9552 59.3461 12.8959 59.3374 12.8334C59.3287 12.7709 59.3354 12.7072 59.357 12.6479Z" fill="#140000"/>
<path fill-rule="evenodd" clip-rule="evenodd" d="M73.642 3.82023L79.0502 11.9783C79.126 12.1011 79.1647 12.2432 79.1618 12.3874V19.9505C79.1627 20.1474 79.2413 20.3361 79.3806 20.4754C79.5198 20.6147 79.7085 20.6934 79.9054 20.6942H82.3493C82.5403 20.6855 82.7205 20.6032 82.8522 20.4646C82.9839 20.3259 83.0568 20.1417 83.0557 19.9505V12.3874C83.0543 12.2397 83.1114 12.0975 83.2146 11.9918L90.651 1.17299C90.7244 1.06011 90.7659 0.929404 90.7708 0.794812C90.7758 0.66022 90.7442 0.526798 90.6793 0.408785C90.6144 0.290772 90.5187 0.192598 90.4024 0.12474C90.2861 0.0568821 90.1535 0.0218867 90.0189 0.0234902H87.0173C86.8933 0.0288866 86.7722 0.062071 86.6628 0.12059C86.5534 0.179108 86.4585 0.261466 86.3852 0.361579L81.4164 8.07339C81.3817 8.12499 81.335 8.16727 81.2801 8.19651C81.2253 8.22575 81.1641 8.24105 81.102 8.24105C81.0399 8.24105 80.9787 8.22575 80.9239 8.19651C80.8691 8.16727 80.8223 8.12499 80.7877 8.07339L76.0791 0.398769C76.0131 0.288934 75.9207 0.197361 75.8103 0.132401C75.6999 0.0674409 75.575 0.0311622 75.447 0.0268718H71.9722C71.7761 0.0277612 71.5884 0.106054 71.4497 0.244716C71.3111 0.383379 71.2328 0.57119 71.2319 0.767286V2.79582C71.2319 2.9925 71.3098 3.18118 71.4485 3.32057C71.5873 3.45996 71.7756 3.53872 71.9722 3.53962H73.0471C73.1607 3.54006 73.2729 3.56541 73.3757 3.6139C73.4785 3.66238 73.5694 3.73281 73.642 3.82023Z" fill="#140000"/>
<path fill-rule="evenodd" clip-rule="evenodd" d="M25.0047 44.0501V38.2654C25.0034 38.1703 24.9831 38.0763 24.9449 37.9891C24.9068 37.902 24.8517 37.8233 24.7827 37.7578C24.7137 37.6922 24.6323 37.6412 24.5433 37.6076C24.4543 37.574 24.3595 37.5586 24.2644 37.5622H16.8855C16.7902 37.5581 16.695 37.5732 16.6056 37.6066C16.5162 37.64 16.4344 37.6909 16.365 37.7565C16.2957 37.8221 16.2402 37.9009 16.2019 37.9883C16.1635 38.0757 16.1431 38.17 16.1419 38.2654V40.2939C16.1428 40.4909 16.2214 40.6796 16.3607 40.8189C16.4999 40.9582 16.6886 41.0368 16.8855 41.0377H20.7051C20.7987 41.0339 20.8922 41.0495 20.9794 41.0837C21.0667 41.1179 21.1459 41.1699 21.212 41.2363C21.2781 41.3028 21.3297 41.3823 21.3635 41.4697C21.3972 41.5572 21.4125 41.6507 21.4082 41.7443V44.3408C21.4166 44.4484 21.397 44.5563 21.3514 44.654C21.3058 44.7518 21.2357 44.8361 21.1479 44.8987C19.9083 45.8859 18.3576 46.399 16.774 46.3457C11.6192 46.3457 9.65533 42.8195 9.65533 39.4453C9.65533 35.182 12.3257 31.8079 16.774 31.8079C18.4831 31.8416 20.1385 32.4117 21.5062 33.4375C21.6439 33.5494 21.8176 33.6074 21.9949 33.6005C22.1722 33.5937 22.3409 33.5225 22.4695 33.4003L23.8926 31.9397C23.9663 31.8736 24.0247 31.7921 24.0634 31.7009C24.1022 31.6097 24.1204 31.5111 24.1169 31.4121C24.1133 31.3131 24.0881 31.216 24.0429 31.1278C23.9977 31.0397 23.9337 30.9625 23.8554 30.9018C21.8794 29.2051 19.3613 28.272 16.7571 28.2715C9.45252 28.2715 5.81885 33.6471 5.81885 39.469C5.81885 44.8784 8.96916 50.0005 16.7571 50.0005C18.31 49.9861 19.8411 49.6319 21.2425 48.9625C21.269 48.949 21.2985 48.9423 21.3282 48.943C21.3579 48.9437 21.387 48.9518 21.4129 48.9665C21.4387 48.9813 21.4604 49.0023 21.4761 49.0275C21.4918 49.0528 21.501 49.0816 21.5028 49.1113V49.1485C21.4975 49.1986 21.5034 49.2493 21.5202 49.2969C21.537 49.3444 21.5643 49.3876 21.5999 49.4232C21.6356 49.4589 21.6787 49.4861 21.7263 49.5029C21.7738 49.5197 21.8245 49.5257 21.8746 49.5204H24.2407C24.4316 49.5214 24.6154 49.4483 24.7535 49.3165C24.8916 49.1847 24.9731 49.0045 24.981 48.8138V44.0805L25.0047 44.0501Z" fill="#140000"/>
<path fill-rule="evenodd" clip-rule="evenodd" d="M28.3408 35.8542C28.3408 41.3076 32.397 43.2347 36.389 43.2719C40.381 43.3091 44.5453 41.196 44.5453 35.8542C44.5453 30.5124 40.4283 28.4365 36.3518 28.4365C32.2753 28.4365 28.3408 30.4042 28.3408 35.8542ZM36.3518 39.6374C34.2392 39.6002 31.9373 38.897 31.9373 35.8542C31.9373 32.8114 34.1986 32.1082 36.3518 32.071C38.505 32.0338 40.986 32.8148 40.986 35.8542C40.986 38.8936 38.5388 39.6746 36.3518 39.6374Z" fill="#140000"/>
<path fill-rule="evenodd" clip-rule="evenodd" d="M43.4702 45.9053H29.4696C29.264 45.907 29.0672 45.9895 28.9218 46.135C28.7764 46.2804 28.6939 46.4772 28.6922 46.6829V48.7587C28.6894 48.8618 28.7076 48.9643 28.7456 49.0601C28.7837 49.1559 28.8408 49.2429 28.9135 49.3159C28.9862 49.389 29.073 49.4465 29.1686 49.485C29.2642 49.5234 29.3666 49.5421 29.4696 49.5397H43.4871C43.5874 49.5385 43.6865 49.5171 43.7784 49.4769C43.8703 49.4367 43.9532 49.3784 44.0222 49.3056C44.0912 49.2328 44.1449 49.1469 44.1802 49.053C44.2154 48.959 44.2315 48.859 44.2274 48.7587V46.6829C44.2283 46.4799 44.1495 46.2846 44.0079 46.1391C43.8663 45.9937 43.6732 45.9097 43.4702 45.9053Z" fill="#140000"/>
<path fill-rule="evenodd" clip-rule="evenodd" d="M48.4394 33.075V48.7962C48.4394 48.9929 48.5173 49.1815 48.656 49.3209C48.7947 49.4603 48.983 49.5391 49.1797 49.54H62.2305C62.4274 49.5391 62.6161 49.4604 62.7553 49.3211C62.8946 49.1818 62.9732 48.9932 62.9741 48.7962V46.6831C62.9732 46.4864 62.8945 46.2981 62.7551 46.1594C62.6158 46.0206 62.4271 45.9427 62.2305 45.9427H53.0736C52.877 45.9418 52.6887 45.8631 52.55 45.7237C52.4112 45.5843 52.3334 45.3956 52.3334 45.1989V29.5724C52.3325 29.3758 52.2537 29.1874 52.1144 29.0487C51.975 28.9099 51.7864 28.832 51.5897 28.832H46.9927C46.7966 28.8329 46.6089 28.9112 46.4702 29.0499C46.3316 29.1885 46.2533 29.3764 46.2524 29.5724V31.601C46.2533 31.7971 46.3316 31.9849 46.4702 32.1235C46.6089 32.2622 46.7966 32.3405 46.9927 32.3414H47.6958C47.7937 32.3372 47.8914 32.3532 47.9829 32.3884C48.0744 32.4237 48.1576 32.4774 48.2273 32.5462C48.2971 32.6151 48.352 32.6976 48.3885 32.7885C48.4249 32.8795 48.4423 32.9771 48.4394 33.075Z" fill="#140000"/>
<path fill-rule="evenodd" clip-rule="evenodd" d="M66.496 33.1462V48.7963C66.496 48.993 66.5739 49.1817 66.7127 49.3211C66.8514 49.4605 67.0397 49.5392 67.2363 49.5401H74.6152C81.8454 49.5401 85.0328 44.2355 84.9585 39.0053C84.8503 33.9339 81.6966 28.8457 74.6152 28.8457H65.0493C64.8533 28.8466 64.6655 28.9249 64.5269 29.0635C64.3882 29.2022 64.31 29.39 64.3091 29.5861V31.6654C64.31 31.8615 64.3882 32.0493 64.5269 32.1879C64.6655 32.3266 64.8533 32.4049 65.0493 32.4058H65.7524C65.949 32.4058 66.1377 32.4837 66.277 32.6224C66.4164 32.7612 66.4951 32.9495 66.496 33.1462ZM71.0931 45.8009C70.8961 45.8 70.7075 45.7213 70.5682 45.582C70.4289 45.4427 70.3503 45.2541 70.3494 45.0571V33.2916C70.3503 33.0949 70.4291 32.9066 70.5684 32.7678C70.7078 32.6291 70.8964 32.5512 71.0931 32.5512H74.6152C79.1007 32.5512 80.9936 35.7765 81.1051 39.0019C81.1795 42.3422 79.3238 45.7907 74.6152 45.7907L71.0931 45.8009Z" fill="#140000"/>
</svg>
