<svg width="12" height="12" viewBox="0 0 12 12" fill="none" xmlns="http://www.w3.org/2000/svg">
<path d="M1.15176 4.19237C1.30356 4.29949 1.76114 4.61763 2.52452 5.14662C3.28792 5.67562 3.87274 6.08293 4.27899 6.36859C4.32363 6.3999 4.41845 6.46796 4.56352 6.57288C4.70861 6.67786 4.82917 6.7627 4.9251 6.82741C5.0211 6.89209 5.13715 6.96466 5.27338 7.04499C5.40955 7.12526 5.53792 7.18563 5.65845 7.2256C5.77901 7.26589 5.89061 7.28585 5.99327 7.28585H6H6.00676C6.10942 7.28585 6.22106 7.26587 6.34162 7.2256C6.4621 7.18563 6.59059 7.12519 6.72665 7.04499C6.86278 6.96457 6.97883 6.89207 7.07483 6.82741C7.17083 6.7627 7.29129 6.67786 7.43643 6.57288C7.58148 6.46787 7.67642 6.3999 7.72105 6.36859C8.1317 6.08293 9.17644 5.35746 10.8549 4.19223C11.1808 3.96465 11.4531 3.69004 11.6718 3.3686C11.8907 3.04729 12 2.71023 12 2.35759C12 2.0629 11.8939 1.81065 11.6818 1.60085C11.4698 1.391 11.2186 1.28613 10.9285 1.28613H1.07138C0.727657 1.28613 0.463135 1.40219 0.277867 1.63429C0.0926224 1.86645 0 2.15663 0 2.50481C0 2.78606 0.122808 3.09083 0.368308 3.41893C0.613784 3.74706 0.875022 4.0049 1.15176 4.19237Z" fill="#434242"/>
<path d="M11.3302 4.90874C9.86612 5.89972 8.75437 6.66988 7.99555 7.21904C7.74109 7.40647 7.53466 7.55278 7.37614 7.65762C7.21761 7.76253 7.00677 7.86967 6.74333 7.979C6.47998 8.08848 6.23455 8.14306 6.00683 8.14306H6.00001H5.99328C5.7656 8.14306 5.52003 8.08848 5.25669 7.979C4.99334 7.86967 4.78236 7.76253 4.62388 7.65762C4.46545 7.55278 4.25895 7.40647 4.00452 7.21904C3.4018 6.77711 2.29245 6.00691 0.676407 4.90874C0.421877 4.73921 0.196432 4.54489 0 4.32617V9.64299C0 9.93781 0.104865 10.1899 0.314713 10.3997C0.524515 10.6096 0.776792 10.7146 1.07145 10.7146H10.9286C11.2232 10.7146 11.4755 10.6096 11.6853 10.3997C11.8952 10.1899 12 9.93783 12 9.64299V4.32617C11.808 4.54036 11.5848 4.73468 11.3302 4.90874Z" fill="#434242"/>
</svg>
