<svg width="12" height="12" viewBox="0 0 12 12" fill="none" xmlns="http://www.w3.org/2000/svg">
<g clip-path="url(#clip0)">
<path d="M6.15136 0.00274526C3.71441 -0.0793814 1.71313 1.87163 1.71313 4.29004C1.71313 7.03466 4.34703 9.02651 5.82332 11.8911C5.89828 12.0365 6.10765 12.0367 6.18286 11.8913C7.51838 9.31376 9.80096 7.58538 10.224 5.10224C10.662 2.53267 8.75647 0.0905729 6.15136 0.00274526ZM6.00288 6.53704C4.76191 6.53704 3.75588 5.53098 3.75588 4.29004C3.75588 3.04909 4.76194 2.04304 6.00288 2.04304C7.24384 2.04304 8.2499 3.04909 8.2499 4.29004C8.2499 5.53098 7.24384 6.53704 6.00288 6.53704Z" fill="#434242"/>
</g>
<defs>
<clipPath id="clip0">
</clipPath>
</defs>
</svg>
