<svg width="21" height="26" viewBox="0 0 21 26" fill="none" xmlns="http://www.w3.org/2000/svg">
<path d="M-65.768 26H-49.928V23.768H-63.176C-63.104 17.036 -50.324 15.848 -50.324 7.352C-50.324 3.392 -53.24 0.259999 -58.028 0.259999C-61.448 0.259999 -64.292 2.276 -65.696 4.832L-63.86 6.092C-62.636 4.112 -60.548 2.636 -58.172 2.636C-55.004 2.636 -52.916 4.724 -52.916 7.496C-52.916 14.336 -65.912 15.488 -65.912 24.38C-65.912 24.884 -65.84 25.424 -65.768 26ZM-46.9445 18.98H-34.3085V26H-31.8245V18.98H-28.2245V16.82H-31.8245V0.692H-34.5245L-46.9445 17.36V18.98ZM-43.9565 16.82V16.748L-35.4965 5.732C-34.8485 4.832 -34.2365 3.788 -34.2365 3.788H-34.1645C-34.1645 3.788 -34.3085 5.12 -34.3085 6.2V16.82H-43.9565ZM-24.6394 26H-10.9234V23.768H-16.5034V0.692H-18.8074L-24.5314 6.38L-22.9474 7.964L-20.2474 5.3C-19.2394 4.292 -18.9874 3.788 -18.9874 3.788H-18.9154C-18.9154 3.788 -18.9514 4.472 -18.9514 5.192V23.768H-24.6394V26ZM12.1035 20.041H5.63477V26H3.49023V20.041H-0.0957031V18.1953H3.49023V15.5762H-0.0957031V13.748H3.49023V0.40625H12.209C14.9043 0.40625 17.0078 1.0918 18.5195 2.46289C20.043 3.82227 20.8047 5.67383 20.8047 8.01758C20.8047 10.4082 20.0664 12.2656 18.5898 13.5898C17.1133 14.9023 15.0039 15.5645 12.2617 15.5762H5.63477V18.1953H12.1035V20.041ZM5.63477 13.748H12.209C14.248 13.748 15.8301 13.2559 16.9551 12.2715C18.0801 11.2754 18.6426 9.86914 18.6426 8.05273C18.6426 6.29492 18.0918 4.90039 16.9902 3.86914C15.9004 2.83789 14.3945 2.29883 12.4727 2.25195H5.63477V13.748Z" fill="#434242"/>
</svg>
